<?xml version="1.0" encoding="UTF-8"?>
<svg version="1.1" xmlns="http://www.w3.org/2000/svg" width="150" height="143">
<path d="M0 0 C49.5 0 99 0 150 0 C150.185625 16.95375 150.37125 33.9075 150.5625 51.375 C150.68540405 59.38273682 150.68540405 59.38273682 150.81079102 67.55224609 C150.85144043 74.10864258 150.85144043 74.10864258 150.85899353 77.18521118 C150.87274743 79.31827729 150.90426502 81.45127659 150.95018005 83.58389282 C151.36432579 103.84564682 151.36432579 103.84564682 145.66772461 110.23291016 C144.14380129 111.52723703 142.58956481 112.78719003 141 114 C139.78926817 115.31227378 138.59757165 116.64273518 137.4375 118 C127.86111648 127.48004164 114.02590163 134.76098433 101.1875 138.625 C100.48520264 138.83664795 99.78290527 139.0482959 99.05932617 139.26635742 C75.00033018 146.36297518 50.55142123 143.8414907 28 133 C25.47851329 131.47302637 23.32201943 129.83826538 21 128 C19.36998047 127.11054688 19.36998047 127.11054688 17.70703125 126.203125 C13.88342673 124.05454681 10.84666572 121.39295142 7.6875 118.375 C7.16349609 117.88515625 6.63949219 117.3953125 6.09960938 116.890625 C0.02444195 111.19661404 0.02444195 111.19661404 -0.24609566 109.02037621 C-0.24425207 108.20366762 -0.24240849 107.38695904 -0.24050903 106.54550171 C-0.24326403 105.61073187 -0.24601902 104.67596203 -0.2488575 103.71286583 C-0.24166128 102.68017382 -0.23446507 101.6474818 -0.22705078 100.58349609 C-0.22741239 98.93275558 -0.22741239 98.93275558 -0.2277813 97.24866676 C-0.22628418 93.67350913 -0.21103311 90.09855801 -0.1953125 86.5234375 C-0.1923733 84.32137146 -0.1903321 82.11930404 -0.18920898 79.91723633 C-0.17870736 71.73646963 -0.15078513 63.5557328 -0.125 55.375 C-0.08375 37.10125 -0.0425 18.8275 0 0 Z " fill="#AE7C3E" transform="translate(0,0)"/>
<path d="M0 0 C0.72960937 0.43183594 1.45921875 0.86367187 2.2109375 1.30859375 C3.32726562 1.83195312 4.44359375 2.3553125 5.59375 2.89453125 C6.84128079 3.49060304 8.08867332 4.08696429 9.3359375 4.68359375 C9.96886719 4.97492187 10.60179688 5.26625 11.25390625 5.56640625 C14.05112078 6.92047188 15.93877479 7.8847338 17.640625 10.53515625 C17.92292969 11.41300781 17.92292969 11.41300781 18.2109375 12.30859375 C18.85417969 12.25058594 19.49742188 12.19257813 20.16015625 12.1328125 C28.11172798 11.73580107 35.49427183 12.78666954 42.2109375 17.30859375 C46.69186147 24.16297516 46.77381736 32.36573356 46.2109375 40.30859375 C46.819375 40.39882813 47.4278125 40.4890625 48.0546875 40.58203125 C50.78895731 41.50336129 51.29725047 42.45964145 52.7109375 44.93359375 C53.12472656 45.65417969 53.53851563 46.37476563 53.96484375 47.1171875 C54.37605469 47.84035156 54.78726563 48.56351563 55.2109375 49.30859375 C55.63246094 49.93894531 56.05398437 50.56929687 56.48828125 51.21875 C57.6484375 52.99609375 57.6484375 52.99609375 59.2109375 56.30859375 C58.06033767 60.05892726 56.17428631 63.47597396 54.3359375 66.93359375 C53.84351563 67.87460938 53.35109375 68.815625 52.84375 69.78515625 C51.18593931 72.34722732 49.80939106 73.74110557 47.2109375 75.30859375 C46.5509375 75.30859375 45.8909375 75.30859375 45.2109375 75.30859375 C45.5409375 75.96859375 45.8709375 76.62859375 46.2109375 77.30859375 C46.79686623 84.57410999 45.94460587 91.90944555 42.2109375 98.30859375 C39.33203125 99.5546875 39.33203125 99.5546875 36.2109375 100.30859375 C35.47230469 100.58960937 34.73367187 100.870625 33.97265625 101.16015625 C29.13860727 102.96268299 25.39603969 103.54396123 20.25390625 102.92578125 C17.11081436 103.51473537 16.16209775 105.84858775 14.2109375 108.30859375 C11.88785084 109.78994221 9.72384115 111.0402576 7.2734375 112.24609375 C6.36174805 112.73819336 6.36174805 112.73819336 5.43164062 113.24023438 C2.5508082 114.68531213 0.82960907 115.46822046 -2.34765625 114.6484375 C-3.15332031 114.20628906 -3.95898438 113.76414062 -4.7890625 113.30859375 C-6.27792969 112.74011719 -6.27792969 112.74011719 -7.796875 112.16015625 C-8.82554688 111.75539063 -9.85421875 111.350625 -10.9140625 110.93359375 C-11.94789062 110.53398438 -12.98171875 110.134375 -14.046875 109.72265625 C-16.93151418 108.23513576 -18.17957026 107.09468031 -19.7890625 104.30859375 C-19.7890625 103.64859375 -19.7890625 102.98859375 -19.7890625 102.30859375 C-20.7790625 102.63859375 -21.7690625 102.96859375 -22.7890625 103.30859375 C-30.23504571 103.8995448 -37.15397113 102.94719225 -43.7890625 99.30859375 C-45.64694829 96.78208829 -46.14144781 94.33647648 -46.7890625 91.30859375 C-47.3459375 90.11234375 -47.9028125 88.91609375 -48.4765625 87.68359375 C-49.82603527 84.2135209 -50.20712264 81.98752297 -49.7890625 78.30859375 C-49.1290625 77.31859375 -48.4690625 76.32859375 -47.7890625 75.30859375 C-48.6553125 75.21578125 -48.6553125 75.21578125 -49.5390625 75.12109375 C-55.18447816 73.08247143 -57.90491443 65.93303314 -60.8125 61.02734375 C-61.7890625 58.30859375 -61.7890625 58.30859375 -61.09765625 55.78125 C-60.66582031 54.96527344 -60.23398437 54.14929688 -59.7890625 53.30859375 C-59.42167969 52.47199219 -59.05429687 51.63539062 -58.67578125 50.7734375 C-55.32635436 43.7145476 -55.32635436 43.7145476 -51.9765625 41.18359375 C-51.2546875 40.56484375 -50.5328125 39.94609375 -49.7890625 39.30859375 C-49.75621974 37.40371357 -49.74002005 35.49412564 -49.875 33.59375 C-49.7382634 29.95779952 -48.24077881 26.98462385 -46.76171875 23.703125 C-45.76314671 21.24479304 -45.22962746 18.9195208 -44.7890625 16.30859375 C-44.20898438 16.19902344 -43.62890625 16.08945312 -43.03125 15.9765625 C-39.23722993 15.20648912 -36.07509045 14.45441192 -32.6015625 12.68359375 C-29.34912144 11.09351145 -27.36705128 10.91968193 -23.7890625 11.30859375 C-21.4140625 12.30859375 -21.4140625 12.30859375 -19.7890625 13.30859375 C-19.6240625 12.58671875 -19.4590625 11.86484375 -19.2890625 11.12109375 C-17.08130289 6.98154448 -13.82525003 5.50371329 -9.7890625 3.30859375 C-9.07492188 2.88835938 -8.36078125 2.468125 -7.625 2.03515625 C-6.93664062 1.65101562 -6.24828125 1.266875 -5.5390625 0.87109375 C-4.91515625 0.52175781 -4.29125 0.17242187 -3.6484375 -0.1875 C-1.7890625 -0.69140625 -1.7890625 -0.69140625 0 0 Z " fill="#201C17" transform="translate(75.7890625,14.69140625)"/>
<path d="M0 0 C2.3125 0.1875 2.3125 0.1875 5 1 C5.59167969 2.13308594 5.59167969 2.13308594 6.1953125 3.2890625 C8.66572978 7.00003565 11.62474627 8.27636692 15.5625 10.1875 C22.80568609 13.80568609 22.80568609 13.80568609 25 16 C27.25394168 16.57134136 29.52926499 17.06008875 31.8125 17.5 C38.53308969 18.80304373 38.53308969 18.80304373 41.6484375 20.1171875 C44.34836932 21.13078317 45.98276937 21.04734786 48.8125 20.625 C49.60269531 20.51414062 50.39289063 20.40328125 51.20703125 20.2890625 C52.09455078 20.14597656 52.09455078 20.14597656 53 20 C53.99 21.485 53.99 21.485 55 23 C54.79375 23.969375 54.5875 24.93875 54.375 25.9375 C53.49165348 30.71975529 55.33048219 34.68346836 56.9609375 39.13671875 C58 42 58 42 58.9375 45.8125 C60.06987108 49.20961323 61.54911386 51.36141895 63.703125 54.16796875 C65.49024563 56.69254579 66.73675816 59.39105787 68.0078125 62.203125 C69.8261324 65.49614529 71.4206482 66.80688273 75 68 C75 69.32 75 70.64 75 72 C73.34151823 73.01351664 71.67334039 74.01120795 70 75 C66.9018121 79.06637162 64.55166567 83.54656237 62.1484375 88.046875 C61 90 61 90 59 92 C58.4268878 94.15840057 58.4268878 94.15840057 58.0625 96.625 C57.4641595 99.96613336 56.72699471 102.88977742 55.375 106 C53.49752014 110.60407121 53.72904964 115.1028232 54 120 C51.07116448 120.86608906 48.72243222 121.00644213 45.6875 120.8125 C36.47529725 120.73061375 26.4298943 123.31054849 18.91015625 128.71484375 C15.85627397 130.76950075 12.47160424 132.13305079 9.1015625 133.59375 C6.4453195 135.37116167 5.91191206 136.99369652 5 140 C6.32 140.33 7.64 140.66 9 141 C5.60418484 141.0291544 2.20840214 141.04685068 -1.1875 141.0625 C-2.62706055 141.07506836 -2.62706055 141.07506836 -4.09570312 141.08789062 C-5.49272461 141.09272461 -5.49272461 141.09272461 -6.91796875 141.09765625 C-7.77156982 141.10289307 -8.6251709 141.10812988 -9.50463867 141.11352539 C-12.09246747 140.99579323 -14.47661953 140.57107044 -17 140 C-17 139.67 -17 139.34 -17 139 C-11.55306686 138.90311779 -6.36095333 138.87137825 -1 140 C-4.04283324 134.49616727 -7.16970417 132.35516889 -12.8125 129.75 C-13.49892578 129.41226563 -14.18535156 129.07453125 -14.89257812 128.7265625 C-19.17488582 126.66846192 -23.39408529 125.21727746 -28 124 C-28.80824219 123.71898438 -29.61648437 123.43796875 -30.44921875 123.1484375 C-36.27768677 121.1344119 -41.37856772 120.75432607 -47.53125 120.9921875 C-50 121 -50 121 -52 120 C-51.835 119.484375 -51.67 118.96875 -51.5 118.4375 C-50.15198255 111.86591495 -51.45754937 107.39005992 -54.06640625 101.4140625 C-55 99 -55 99 -55.375 95.375 C-56.13972844 91.24546642 -57.84023189 89.25806414 -60.4453125 86.0546875 C-62.41296906 83.45421677 -63.72361398 80.73177309 -65.04296875 77.76171875 C-66.82777555 74.47621724 -68.44742651 73.18419116 -72 72 C-72 70.68 -72 69.36 -72 68 C-71.21625 67.9175 -70.4325 67.835 -69.625 67.75 C-66.92051828 67.30366855 -66.92051828 67.30366855 -66.01953125 65.33203125 C-65.68308594 64.56246094 -65.34664063 63.79289062 -65 63 C-64.0251884 60.97706227 -63.04567507 58.95638621 -62.0625 56.9375 C-61.55847656 55.89464844 -61.05445313 54.85179687 -60.53515625 53.77734375 C-59 51 -59 51 -57.40625 49.49609375 C-55.33642624 47.29403125 -55.07526685 45.04779436 -54.4375 42.125 C-53.76038521 39.07224517 -53.09871734 36.24321663 -51.921875 33.34375 C-50.27756726 29.1633066 -50.60012883 25.19961352 -52 21 C-48.8621055 20.19022077 -46.14146679 20.01856357 -42.9375 20.1875 C-36.87369069 20.27876134 -31.61500338 18.07626306 -26 16 C-25.06929687 15.71511719 -24.13859375 15.43023437 -23.1796875 15.13671875 C-19.03127443 13.65368656 -15.21319655 11.72367033 -11.3125 9.6875 C-10.55388672 9.30916016 -9.79527344 8.93082031 -9.01367188 8.54101562 C-4.71114992 6.29671688 -2.05049982 4.61566692 0 0 Z M-2.46875 13.51171875 C-3.818179 14.22635719 -5.16176717 14.9521092 -6.5 15.6875 C-7.17675781 16.04005859 -7.85351562 16.39261719 -8.55078125 16.75585938 C-12.14898019 18.69689963 -14.95175617 20.3147128 -17 24 C-17 24.66 -17 25.32 -17 26 C-17.53625 25.67 -18.0725 25.34 -18.625 25 C-21.6710726 23.71744312 -23.71088258 23.67108826 -27 24 C-29.0088485 24.98210371 -31.00787329 25.98440599 -33 27 C-35.97475545 27.80596823 -38.97226285 28.42809409 -42 29 C-42.65077296 31.04009755 -43.29539824 33.08215669 -43.9375 35.125 C-44.47697266 36.83042969 -44.47697266 36.83042969 -45.02734375 38.5703125 C-46.32696126 43.15289955 -47 47.23441836 -47 52 C-47.86625 52.66 -48.7325 53.32 -49.625 54 C-54.39299519 57.65013986 -57.25465567 63.34267701 -59 69 C-58.42792756 71.59509585 -58.42792756 71.59509585 -57 74 C-56.53722656 74.92039063 -56.07445312 75.84078125 -55.59765625 76.7890625 C-55.09105469 77.72492188 -54.58445312 78.66078125 -54.0625 79.625 C-53.55847656 80.56601563 -53.05445313 81.50703125 -52.53515625 82.4765625 C-51.16695511 84.72556488 -50.0702741 86.38918621 -48 88 C-47.01 88 -46.02 88 -45 88 C-45.66 88.99 -46.32 89.98 -47 91 C-47.70607872 95.94255107 -46.19296075 99.31661358 -44.0703125 103.65625 C-43 106 -43 106 -42.21484375 109.1328125 C-41.2597722 112.18332453 -41.2597722 112.18332453 -38.49609375 113.4609375 C-31.1726299 115.64955888 -24.50029526 117.50009842 -17 115 C-16.65195313 116.15628906 -16.65195313 116.15628906 -16.296875 117.3359375 C-14.71105509 120.5935555 -13.5132313 121.17137879 -10.25 122.625 C-8.90615234 123.23408203 -8.90615234 123.23408203 -7.53515625 123.85546875 C-6.69855469 124.23316406 -5.86195312 124.61085938 -5 125 C-3.3603125 125.9590625 -3.3603125 125.9590625 -1.6875 126.9375 C0.91556046 128.29835339 0.91556046 128.29835339 3.28515625 127.24609375 C4.18105469 126.83488281 5.07695313 126.42367187 6 126 C6.99257812 125.54882812 7.98515625 125.09765625 9.0078125 124.6328125 C10.03648438 124.13523437 11.06515625 123.63765625 12.125 123.125 C13.15882812 122.63257812 14.19265625 122.14015625 15.2578125 121.6328125 C18.07449772 120.19688508 18.07449772 120.19688508 19.609375 117.80859375 C21 116 21 116 22.9453125 115.71484375 C23.66460937 115.78832031 24.38390625 115.86179687 25.125 115.9375 C30.29610309 116.18134063 34.22226821 114.81770599 39 113 C40.02996094 112.75121094 41.05992188 112.50242187 42.12109375 112.24609375 C45.17991893 111.25966742 45.17991893 111.25966742 46.4609375 108.49609375 C49.77292619 98.25453003 49.77292619 98.25453003 48 88 C49.14082031 87.65388672 49.14082031 87.65388672 50.3046875 87.30078125 C53.57475141 85.72261997 54.39638194 84.33774112 56.125 81.1875 C56.60195312 80.33542969 57.07890625 79.48335938 57.5703125 78.60546875 C58.04210937 77.74566406 58.51390625 76.88585937 59 76 C59.59554687 75.17113281 60.19109375 74.34226563 60.8046875 73.48828125 C62.29638551 71.06500358 62.29638551 71.06500358 61.375 68.54296875 C60.92125 67.70378906 60.4675 66.86460938 60 66 C59.525625 65.06800781 59.05125 64.13601562 58.5625 63.17578125 C58.046875 62.23089844 57.53125 61.28601562 57 60.3125 C56.484375 59.35988281 55.96875 58.40726563 55.4375 57.42578125 C54.09198404 54.92676187 54.09198404 54.92676187 52 53 C51.01 53 50.02 53 49 53 C49.04640625 52.34515625 49.0928125 51.6903125 49.140625 51.015625 C49.43222547 43.64229889 49.13762867 36.32924933 45 30 C37.72689519 25.10345902 29.55826316 24.22821274 21 25 C20.73509766 24.13955078 20.73509766 24.13955078 20.46484375 23.26171875 C18.28513722 19.89625186 15.04901779 18.56067872 11.5625 16.8125 C10.88123047 16.45736328 10.19996094 16.10222656 9.49804688 15.73632812 C3.6858473 12.34494968 3.6858473 12.34494968 -2.46875 13.51171875 Z " fill="#483319" transform="translate(73,2)"/>
<path d="M0 0 C3.63 0 7.26 0 11 0 C9.85460271 3.62709141 8.53677387 7.12289348 7.0625 10.625 C0.84443136 26.36812509 0.02834429 42.55467225 4.24609375 58.95703125 C5.07141415 62.28824675 5.56039351 65.59838475 6 69 C3.525 69.495 3.525 69.495 1 70 C1 71.32 1 72.64 1 74 C1.556875 74.04125 2.11375 74.0825 2.6875 74.125 C8.7317043 76.41199622 11.27535704 83.2391189 13.7890625 88.73046875 C14.86038176 91.02637841 14.86038176 91.02637841 16.5859375 92.50390625 C18.47184421 94.49921639 18.59862511 96.05744344 19 98.75 C19.55452909 101.98788596 20.19072281 104.73181662 21.625 107.6875 C23.18129961 111.43676724 23.37950296 113.97726857 23 118 C22.37484931 119.35329555 21.71522774 120.69207358 21 122 C21.825 121.95359375 22.65 121.9071875 23.5 121.859375 C35.04772331 121.49850865 47.50232068 122.72147894 57.12890625 129.7109375 C60.14018412 131.78551307 63.47809222 133.18393823 66.80078125 134.69140625 C69.27425707 136.16319026 70.50486372 137.55649248 72 140 C72 140.66 72 141.32 72 142 C54.59954979 141.87838523 40.36756778 139.76707146 25 131 C23.69675781 130.26523437 23.69675781 130.26523437 22.3671875 129.515625 C13.89899189 124.44918318 6.94668039 117.94668039 0 111 C-0.24609566 109.02037621 -0.24609566 109.02037621 -0.24050903 106.54550171 C-0.24325836 105.60878128 -0.24600769 104.67206085 -0.24884033 103.70695496 C-0.24164978 102.67621353 -0.23445923 101.64547211 -0.22705078 100.58349609 C-0.22734283 99.50055771 -0.22763489 98.41761932 -0.22793579 97.30186462 C-0.22653828 93.70897512 -0.21095718 90.11629094 -0.1953125 86.5234375 C-0.19158387 84.03764967 -0.18873619 81.55186038 -0.18673706 79.06607056 C-0.17987126 73.18350914 -0.16409547 67.30102398 -0.14403808 61.41849387 C-0.11950986 54.06546742 -0.10875255 46.71243187 -0.09765625 39.359375 C-0.07618531 26.23954451 -0.04203499 13.11977958 0 0 Z " fill="#B17A43" transform="translate(0,0)"/>
<path d="M0 0 C4.11832203 1.19587014 7.85366694 3.42178751 11.625 5.4375 C12.75164062 6.03433594 13.87828125 6.63117187 15.0390625 7.24609375 C18 9 18 9 19.57421875 10.66015625 C21.6175763 12.58035253 23.43954771 12.62792183 26.1875 13 C30.47093549 13.67157948 34.14340751 14.70071216 38.140625 16.3359375 C41.05858912 17.37806754 43.92592785 17.67978415 47 18 C47.16435547 18.81791016 47.16435547 18.81791016 47.33203125 19.65234375 C48.19902365 23.77584419 49.20084041 27.71875196 50.625 31.6875 C51.66351641 34.60960009 51.99503388 36.13160227 51.875 39.3125 C51.91625 40.199375 51.9575 41.08625 52 42 C52.76054688 42.59039062 53.52109375 43.18078125 54.3046875 43.7890625 C57.3828395 46.31403936 58.56394375 48.48184896 60.25 52.0625 C60.75015625 53.10535156 61.2503125 54.14820313 61.765625 55.22265625 C63 58 63 58 64 61 C64.66 61 65.32 61 66 61 C64.8954087 63.39328115 63.66549643 65.49598806 62.1875 67.6875 C59.96980236 71.04572785 58.09720947 74.47816666 56.24609375 78.046875 C55 80 55 80 52 82 C52.03411378 83.60334768 52.07599774 85.20689243 52.15625 86.80859375 C51.88901143 90.55661475 50.31306878 93.85808353 48.95703125 97.33203125 C47.78531881 100.5984786 47.3061473 103.55584283 47 107 C46.26394531 107.12117188 45.52789062 107.24234375 44.76953125 107.3671875 C43.79371094 107.53476563 42.81789063 107.70234375 41.8125 107.875 C40.84957031 108.03742188 39.88664062 108.19984375 38.89453125 108.3671875 C36.00741201 108.91011053 36.00741201 108.91011053 33.44921875 110.05078125 C30.8241296 111.0681603 28.79947054 111.22939072 26 111.3125 C20.9688144 111.72744314 19.41142891 113.23868094 16 117 C13.76025239 118.17555814 11.4872277 119.13018941 9.14453125 120.08203125 C6.8141419 121.00883812 6.8141419 121.00883812 4.1875 122.8125 C2 124 2 124 0.09765625 123.6875 C-1.97871801 123.0069751 -3.81158701 122.19275136 -5.75 121.1875 C-7.89719086 120.07771596 -10.03903249 118.98164788 -12.2265625 117.953125 C-12.93554688 117.61796875 -13.64453125 117.2828125 -14.375 116.9375 C-15.02210937 116.63714844 -15.66921875 116.33679688 -16.3359375 116.02734375 C-18 115 -18 115 -20 112 C-21.86239965 112.03386181 -23.72500093 112.0750455 -25.5859375 112.15625 C-29.45846104 111.90560123 -32.78445842 110.36916541 -36.3671875 108.95703125 C-39.61992961 107.77465467 -42.56530927 107.30530584 -46 107 C-46.10957031 106.28714844 -46.21914063 105.57429688 -46.33203125 104.83984375 C-47.36780643 98.36514862 -47.36780643 98.36514862 -49.625 92.25 C-51 89 -51 89 -50.875 85.375 C-51.04405693 80.81046279 -52.73576254 80.12231409 -56 77 C-57.6712154 74.19284847 -59.17732557 71.33233879 -60.66796875 68.42578125 C-61.90075177 65.91293931 -61.90075177 65.91293931 -64 64 C-63.74739217 59.45305912 -61.52036578 56.672533 -59 53 C-58.31555901 51.63376065 -57.64929779 50.2582866 -57 48.875 C-55.75863804 46.26961186 -55.01599868 45.01417026 -52.8125 43.0625 C-50.33879913 40.24759901 -50.52227323 37.95082787 -50.27734375 34.30078125 C-49.86940422 30.91660683 -48.37668729 28.09754641 -47 25 C-46.5945897 22.67810464 -46.23927006 20.34484656 -46 18 C-45.1646875 17.83564453 -45.1646875 17.83564453 -44.3125 17.66796875 C-40.3958287 16.8542009 -36.70473744 15.96122266 -33 14.4375 C-29.37406836 12.97554752 -26.06950565 12.61068114 -22.17578125 12.50390625 C-19.11207757 11.79435908 -17.40956796 9.99176545 -15 8 C-12.98562801 6.90648378 -10.94238174 5.8646489 -8.875 4.875 C-5.74761893 3.36980163 -2.89127178 1.92751452 0 0 Z M-3.46875 5.51171875 C-4.818179 6.22635719 -6.16176717 6.9521092 -7.5 7.6875 C-8.17675781 8.04005859 -8.85351562 8.39261719 -9.55078125 8.75585938 C-13.14898019 10.69689963 -15.95175617 12.3147128 -18 16 C-18 16.66 -18 17.32 -18 18 C-18.53625 17.67 -19.0725 17.34 -19.625 17 C-22.6710726 15.71744312 -24.71088258 15.67108826 -28 16 C-30.0088485 16.98210371 -32.00787329 17.98440599 -34 19 C-36.97475545 19.80596823 -39.97226285 20.42809409 -43 21 C-43.65077296 23.04009755 -44.29539824 25.08215669 -44.9375 27.125 C-45.47697266 28.83042969 -45.47697266 28.83042969 -46.02734375 30.5703125 C-47.32696126 35.15289955 -48 39.23441836 -48 44 C-48.86625 44.66 -49.7325 45.32 -50.625 46 C-55.39299519 49.65013986 -58.25465567 55.34267701 -60 61 C-59.42792756 63.59509585 -59.42792756 63.59509585 -58 66 C-57.53722656 66.92039063 -57.07445312 67.84078125 -56.59765625 68.7890625 C-56.09105469 69.72492188 -55.58445312 70.66078125 -55.0625 71.625 C-54.55847656 72.56601563 -54.05445313 73.50703125 -53.53515625 74.4765625 C-52.16695511 76.72556488 -51.0702741 78.38918621 -49 80 C-48.01 80 -47.02 80 -46 80 C-46.66 80.99 -47.32 81.98 -48 83 C-48.70607872 87.94255107 -47.19296075 91.31661358 -45.0703125 95.65625 C-44 98 -44 98 -43.21484375 101.1328125 C-42.2597722 104.18332453 -42.2597722 104.18332453 -39.49609375 105.4609375 C-32.1726299 107.64955888 -25.50029526 109.50009842 -18 107 C-17.65195313 108.15628906 -17.65195313 108.15628906 -17.296875 109.3359375 C-15.71105509 112.5935555 -14.5132313 113.17137879 -11.25 114.625 C-9.90615234 115.23408203 -9.90615234 115.23408203 -8.53515625 115.85546875 C-7.69855469 116.23316406 -6.86195312 116.61085938 -6 117 C-4.3603125 117.9590625 -4.3603125 117.9590625 -2.6875 118.9375 C-0.08443954 120.29835339 -0.08443954 120.29835339 2.28515625 119.24609375 C3.18105469 118.83488281 4.07695313 118.42367187 5 118 C5.99257812 117.54882812 6.98515625 117.09765625 8.0078125 116.6328125 C9.03648438 116.13523437 10.06515625 115.63765625 11.125 115.125 C12.15882812 114.63257812 13.19265625 114.14015625 14.2578125 113.6328125 C17.07449772 112.19688508 17.07449772 112.19688508 18.609375 109.80859375 C20 108 20 108 21.9453125 107.71484375 C22.66460937 107.78832031 23.38390625 107.86179687 24.125 107.9375 C29.29610309 108.18134063 33.22226821 106.81770599 38 105 C39.02996094 104.75121094 40.05992188 104.50242187 41.12109375 104.24609375 C44.17991893 103.25966742 44.17991893 103.25966742 45.4609375 100.49609375 C48.77292619 90.25453003 48.77292619 90.25453003 47 80 C48.14082031 79.65388672 48.14082031 79.65388672 49.3046875 79.30078125 C52.57475141 77.72261997 53.39638194 76.33774112 55.125 73.1875 C55.60195312 72.33542969 56.07890625 71.48335938 56.5703125 70.60546875 C57.04210937 69.74566406 57.51390625 68.88585937 58 68 C58.59554687 67.17113281 59.19109375 66.34226563 59.8046875 65.48828125 C61.29638551 63.06500358 61.29638551 63.06500358 60.375 60.54296875 C59.92125 59.70378906 59.4675 58.86460938 59 58 C58.525625 57.06800781 58.05125 56.13601562 57.5625 55.17578125 C57.046875 54.23089844 56.53125 53.28601562 56 52.3125 C55.484375 51.35988281 54.96875 50.40726563 54.4375 49.42578125 C53.09198404 46.92676187 53.09198404 46.92676187 51 45 C50.01 45 49.02 45 48 45 C48.04640625 44.34515625 48.0928125 43.6903125 48.140625 43.015625 C48.43222547 35.64229889 48.13762867 28.32924933 44 22 C36.72689519 17.10345902 28.55826316 16.22821274 20 17 C19.73509766 16.13955078 19.73509766 16.13955078 19.46484375 15.26171875 C17.28513722 11.89625186 14.04901779 10.56067872 10.5625 8.8125 C9.88123047 8.45736328 9.19996094 8.10222656 8.49804688 7.73632812 C2.6858473 4.34494968 2.6858473 4.34494968 -3.46875 5.51171875 Z " fill="#AB8546" transform="translate(74,10)"/>
<path d="M0 0 C1.36125 1.299375 1.36125 1.299375 2.75 2.625 C6.86745551 6.18558653 11.42954603 8.39059787 16.328125 10.703125 C19 12 19 12 22 14 C22 14.66 22 15.32 22 16 C22.969375 15.938125 23.93875 15.87625 24.9375 15.8125 C28.0055345 15.80022786 30.32241463 16.36047886 33.1875 17.4375 C38.6770811 19.45097957 44.19931222 19.71536388 50 20 C50.03738281 20.70125 50.07476562 21.4025 50.11328125 22.125 C50.49081653 27.57335231 51.16844287 32.14303337 53.3203125 37.1640625 C54 39 54 39 54.375 42.625 C55.04077965 46.22021011 56.14842305 47.63451309 58.6015625 50.2578125 C60.89610386 53.1163752 62.27032476 56.41268933 63.7890625 59.73046875 C65.6951791 63.30290018 67.1402911 64.71343037 71 66 C71 66.66 71 67.32 71 68 C69.88625 68.5878125 69.88625 68.5878125 68.75 69.1875 C65.24302997 71.49891206 63.84900171 74.36164179 62 78 C58.41511553 84.62660462 58.41511553 84.62660462 56.4453125 86.3984375 C54.55602624 88.49197092 54.37042639 90.10931491 53.9375 92.875 C53.50169582 95.58943748 53.04829064 97.88510157 51.98046875 100.42578125 C50.83080941 103.44420955 50.58711385 106.09543992 50.375 109.3125 C50.30023438 110.38113281 50.22546875 111.44976562 50.1484375 112.55078125 C50.07496094 113.76314453 50.07496094 113.76314453 50 115 C49.40832031 114.98839844 48.81664063 114.97679688 48.20703125 114.96484375 C43.99768215 114.91677614 40.1077667 114.93993117 36 116 C36 115.01 36 114.02 36 113 C38.75078884 112.08307039 40.35948913 111.89113917 43.1875 111.9375 C44.445625 111.958125 45.70375 111.97875 47 112 C46.9175 111.071875 46.835 110.14375 46.75 109.1875 C46.71283968 104.60749052 48.46511973 100.85108164 50.12890625 96.6484375 C51.2093056 93.85102807 51.2093056 93.85102807 50.9375 90.125 C51 87 51 87 53.125 84.75 C54.07375 83.8425 55.0225 82.935 56 82 C57.62905141 79.25019454 59.09480343 76.4381477 60.57421875 73.60546875 C62.11076439 70.79758946 63.86336275 68.38317232 66 66 C65.34 66 64.68 66 64 66 C61.32164114 62.49042633 59.4109165 58.84970632 57.5 54.875 C56.08288105 51.93141651 55.17542971 50.16081057 52.75 47.9375 C50.31067907 45.23682326 50.5141112 42.91640552 50.28125 39.37109375 C49.99251931 36.93693366 49.37315763 35.06934085 48.4375 32.8125 C47.04164004 29.43126642 46.72318347 26.69088708 47 23 C46.071875 23.0825 45.14375 23.165 44.1875 23.25 C39.63501386 23.27764668 35.89372101 21.58769404 31.7109375 19.9375 C29.24399641 19.08437916 27.27146803 18.72090417 24.6875 18.5625 C20.84428097 17.97624625 19.58983939 17.08553299 16.83984375 14.47265625 C12.04341944 10.6334801 5.80671067 7.93557022 0 6 C-1.63203872 6.85002017 -3.25647925 7.72012215 -4.82421875 8.68359375 C-8.34849499 10.81587578 -12.00942751 12.69743313 -15.64453125 14.6328125 C-18.08673612 15.91567653 -18.08673612 15.91567653 -20 18 C-21.88232537 18.38560535 -23.78254434 18.68653345 -25.6875 18.9375 C-29.32547401 19.48015722 -32.49887704 20.01358062 -35.8125 21.625 C-39.43319724 23.1868694 -42.09776535 23.23891233 -46 23 C-45.87625 24.3921875 -45.87625 24.3921875 -45.75 25.8125 C-45.71265247 30.4062468 -47.4598465 34.19809843 -49.12890625 38.4140625 C-50.19119125 41.08831895 -50.19119125 41.08831895 -49.9375 44.4375 C-49.958125 45.283125 -49.97875 46.12875 -50 47 C-51.14082031 47.88171875 -51.14082031 47.88171875 -52.3046875 48.78125 C-55.38299836 51.31527981 -56.52518167 53.46600967 -58.1875 57.0625 C-59.66995438 60.22689472 -61.05885141 63.08827711 -63 66 C-62.63571127 69.08101825 -61.37354093 71.24950899 -59.6875 73.8125 C-59.24535156 74.5034375 -58.80320312 75.194375 -58.34765625 75.90625 C-57.90292969 76.5971875 -57.45820312 77.288125 -57 78 C-55.52978408 80.3083764 -54.24762764 82.5527304 -53 85 C-53.33 85.99 -53.66 86.98 -54 88 C-59.119625 82.44155 -62.60721989 76.17834034 -65 69 C-67.01508358 68.26676204 -67.01508358 68.26676204 -69 68 C-69 67.34 -69 66.68 -69 66 C-68.13568359 65.73509766 -68.13568359 65.73509766 -67.25390625 65.46484375 C-63.90711279 63.28971802 -62.63977257 60.04904285 -60.9375 56.5625 C-57.3595933 49.35898118 -57.3595933 49.35898118 -55.42236328 47.42504883 C-53.4694065 45.46840469 -53.36044847 43.82694265 -52.9375 41.125 C-52.50051537 38.40321002 -52.03957543 36.09537527 -50.98046875 33.54296875 C-49.88075804 30.69073101 -49.59492573 28.2298059 -49.375 25.1875 C-49.30023438 24.21167969 -49.22546875 23.23585938 -49.1484375 22.23046875 C-49.09945312 21.49441406 -49.05046875 20.75835938 -49 20 C-47.82244141 19.94392578 -47.82244141 19.94392578 -46.62109375 19.88671875 C-40.36182222 19.49503427 -35.75053758 18.60401702 -30 16 C-27.72887692 15.71956567 -25.4981483 15.56583434 -23.2109375 15.50390625 C-20.11147956 14.79749269 -18.43285703 13.02318834 -16 11 C-13.79809062 9.70258753 -11.56725875 8.4532236 -9.3125 7.25 C-8.17425781 6.63640625 -7.03601563 6.0228125 -5.86328125 5.390625 C-3 4 -3 4 -1 4 C-0.67 2.68 -0.34 1.36 0 0 Z " fill="#31281C" transform="translate(74,5)"/>
<path d="M0 0 C0.33 0.66 0.66 1.32 1 2 C1.66 2 2.32 2 3 2 C3 2.66 3 3.32 3 4 C4.32 4.66 5.64 5.32 7 6 C7 6.66 7 7.32 7 8 C7.66 8 8.32 8 9 8 C9 8.66 9 9.32 9 10 C9.57234375 10.268125 10.1446875 10.53625 10.734375 10.8125 C13.07884634 12.04132636 15.12404938 13.42522176 17.25 15 C17.95640625 15.515625 18.6628125 16.03125 19.390625 16.5625 C19.92171875 17.036875 20.4528125 17.51125 21 18 C21 18.66 21 19.32 21 20 C21.825 19.95359375 22.65 19.9071875 23.5 19.859375 C35.04772331 19.49850865 47.50232068 20.72147894 57.12890625 27.7109375 C60.14018412 29.78551307 63.47809222 31.18393823 66.80078125 32.69140625 C69.27425707 34.16319026 70.50486372 35.55649248 72 38 C72 38.66 72 39.32 72 40 C54.59954979 39.87838523 40.36756778 37.76707146 25 29 C24.13117187 28.51015625 23.26234375 28.0203125 22.3671875 27.515625 C13.89899189 22.44918318 6.94668039 15.94668039 0 9 C-0.1953125 6.8359375 -0.1953125 6.8359375 -0.125 4.375 C-0.10695312 3.55773437 -0.08890625 2.74046875 -0.0703125 1.8984375 C-0.04710937 1.27195312 -0.02390625 0.64546875 0 0 Z " fill="#8B850A" transform="translate(0,102)"/>
<path d="M0 0 C0.33 0 0.66 0 1 0 C1.77816278 5.05325457 2.122751 9.25604436 -0.72265625 13.67578125 C-3.04888737 16.24141867 -5.4810437 18.62430187 -8 21 C-8.59941406 21.67675781 -9.19882813 22.35351562 -9.81640625 23.05078125 C-19.44607386 33.80067865 -34.47507461 41.60657723 -48.1875 45.6875 C-49.21520508 46.00557617 -49.21520508 46.00557617 -50.26367188 46.33007812 C-55.73149469 47.99831666 -60.59278773 49.13876283 -66.3125 49.0625 C-67.19550781 49.05347656 -68.07851562 49.04445312 -68.98828125 49.03515625 C-69.65214844 49.02355469 -70.31601563 49.01195312 -71 49 C-70.875 46.75 -70.875 46.75 -70 44 C-63.28333946 38.37252765 -54.2817883 34.62349267 -46 32 C-45.23558594 31.71898438 -44.47117187 31.43796875 -43.68359375 31.1484375 C-36.74406483 28.7588258 -30.28867652 28.69154504 -23 29 C-22.57654297 27.84177734 -22.57654297 27.84177734 -22.14453125 26.66015625 C-20.31756459 22.41386173 -17.14870847 19.86153135 -13.5 17.125 C-11.25939386 15.22048478 -9.94996854 13.64137635 -8.3125 11.25 C-7.1678125 9.64125 -7.1678125 9.64125 -6 8 C-5.34 8 -4.68 8 -4 8 C-3.71125 7.236875 -3.4225 6.47375 -3.125 5.6875 C-2 3 -2 3 0 0 Z " fill="#EFA200" transform="translate(149,93)"/>
<path d="M0 0 C2.3125 0.1875 2.3125 0.1875 5 1 C5.39445312 1.75539062 5.78890625 2.51078125 6.1953125 3.2890625 C8.66572978 7.00003565 11.62474627 8.27636692 15.5625 10.1875 C22.80568609 13.80568609 22.80568609 13.80568609 25 16 C27.25394168 16.57134136 29.52926499 17.06008875 31.8125 17.5 C38.53308969 18.80304373 38.53308969 18.80304373 41.6484375 20.1171875 C44.34836932 21.13078317 45.98276937 21.04734786 48.8125 20.625 C49.60269531 20.51414062 50.39289063 20.40328125 51.20703125 20.2890625 C52.09455078 20.14597656 52.09455078 20.14597656 53 20 C53.99 21.485 53.99 21.485 55 23 C54.79375 23.969375 54.5875 24.93875 54.375 25.9375 C53.49165348 30.71975529 55.33048219 34.68346836 56.9609375 39.13671875 C58 42 58 42 58.9375 45.8125 C60.06987108 49.20961323 61.54911386 51.36141895 63.703125 54.16796875 C65.49024563 56.69254579 66.73675816 59.39105787 68.0078125 62.203125 C69.8261324 65.49614529 71.4206482 66.80688273 75 68 C75 69.32 75 70.64 75 72 C73.34151823 73.01351664 71.67334039 74.01120795 70 75 C66.9018121 79.06637162 64.55166567 83.54656237 62.1484375 88.046875 C61 90 61 90 59 92 C58.4268878 94.15840057 58.4268878 94.15840057 58.0625 96.625 C57.4641595 99.96613336 56.72699471 102.88977742 55.375 106 C53.49752014 110.60407121 53.72904964 115.1028232 54 120 C51.07116448 120.86608906 48.72243222 121.00644213 45.6875 120.8125 C36.39792121 120.72992597 26.44717002 123.35779534 18.8515625 128.76171875 C15.49082023 131.00930377 11.72396362 132.45696878 8 134 C9.50125637 129.71339377 12.17977135 128.47602361 16.0625 126.375 C20.24252674 124.39931366 20.24252674 124.39931366 23 121 C25.50390625 120.5859375 25.50390625 120.5859375 28.5625 120.375 C30.08037109 120.26285156 30.08037109 120.26285156 31.62890625 120.1484375 C32.41136719 120.09945312 33.19382813 120.05046875 34 120 C34 119.01 34 118.02 34 117 C34.99 117 35.98 117 37 117 C37 117.66 37 118.32 37 119 C38.0209375 118.505 38.0209375 118.505 39.0625 118 C42.53849295 116.81668325 45.34963549 116.79337559 49 117 C49.66 117.33 50.32 117.66 51 118 C50.96519531 117.21496094 50.93039063 116.42992188 50.89453125 115.62109375 C50.72541342 109.05771111 51.18088714 104.86375474 54 99 C54.14360372 97.67033597 54.24622219 96.33575287 54.3125 95 C54.70407386 90.74979209 56.56474814 88.86087664 59.44921875 85.859375 C61.18685592 83.77596116 62.09792478 81.8167631 63.125 79.3125 C64.56662654 75.80713423 65.87693317 73.3171141 69 71 C69.99 71 70.98 71 72 71 C72 70.34 72 69.68 72 69 C71.443125 68.95875 70.88625 68.9175 70.3125 68.875 C64.2682957 66.58800378 61.72464296 59.7608811 59.2109375 54.26953125 C58.14066583 51.97440236 58.14066583 51.97440236 56.41796875 50.50390625 C54.51204392 48.48247082 54.36339902 46.8457918 53.9375 44.125 C53.49786317 41.38669058 53.04279629 39.10007014 51.94921875 36.54296875 C50.84889687 33.59519286 50.79947668 31.32171796 50.875 28.1875 C50.89304687 27.21167969 50.91109375 26.23585938 50.9296875 25.23046875 C50.95289062 24.49441406 50.97609375 23.75835938 51 23 C50.23816406 23.03480469 49.47632812 23.06960937 48.69140625 23.10546875 C42.6068908 23.26498788 37.72837582 22.93232787 32.046875 20.734375 C29.05514262 19.66100537 26.15218052 19.33533835 23 19 C23 18.34 23 17.68 23 17 C20.56641524 15.76795959 18.11775983 14.58204258 15.65234375 13.4140625 C14.41394867 12.81794474 13.17567024 12.22158462 11.9375 11.625 C11.31294922 11.33367188 10.68839844 11.04234375 10.04492188 10.7421875 C6.44744902 8.99144297 4.07844804 7.45646671 2 4 C1.32324219 4.74894531 0.64648438 5.49789063 -0.05078125 6.26953125 C-3.01039872 9.22914872 -6.414362 10.95666658 -10.1875 12.6875 C-14.93256926 14.81953576 -14.93256926 14.81953576 -19 18 C-22.625 17.625 -22.625 17.625 -26 17 C-26 16.67 -26 16.34 -26 16 C-25.18917969 15.75894531 -24.37835938 15.51789062 -23.54296875 15.26953125 C-19.26324359 13.73600239 -15.3370839 11.78833974 -11.3125 9.6875 C-10.55388672 9.30916016 -9.79527344 8.93082031 -9.01367188 8.54101562 C-4.71114992 6.29671688 -2.05049982 4.61566692 0 0 Z " fill="#4C371A" transform="translate(73,2)"/>
<path d="M0 0 C2.97 0.33 5.94 0.66 9 1 C9.268125 2.299375 9.53625 3.59875 9.8125 4.9375 C10.5449608 8.28890336 11.46672296 11.45969479 12.625 14.6875 C13.66351641 17.60960009 13.99503388 19.13160227 13.875 22.3125 C13.936875 23.6428125 13.936875 23.6428125 14 25 C14.76054688 25.59039062 15.52109375 26.18078125 16.3046875 26.7890625 C19.3828395 29.31403936 20.56394375 31.48184896 22.25 35.0625 C22.75015625 36.10535156 23.2503125 37.14820313 23.765625 38.22265625 C25 41 25 41 26 44 C26.66 44 27.32 44 28 44 C26.8954087 46.39328115 25.66549643 48.49598806 24.1875 50.6875 C21.96980236 54.04572785 20.09720947 57.47816666 18.24609375 61.046875 C17 63 17 63 14 65 C14.03411378 66.60334768 14.07599774 68.20689243 14.15625 69.80859375 C13.88901143 73.55661475 12.31306878 76.85808353 10.95703125 80.33203125 C9.78531881 83.5984786 9.3061473 86.55584283 9 90 C4.05 90.495 4.05 90.495 -1 91 C-0.67 89.68 -0.34 88.36 0 87 C2.475 86.505 2.475 86.505 5 86 C7.8004354 78.83638623 9.47972761 72.99581514 8.65234375 65.27734375 C8.82443359 64.15005859 8.82443359 64.15005859 9 63 C10.65243302 61.97665113 12.32197343 60.98081834 14 60 C15.66410183 57.70798835 17.06138092 55.57199918 18.4375 53.125 C18.81326172 52.51269531 19.18902344 51.90039062 19.57617188 51.26953125 C21.2190362 48.40142793 22.16143808 46.699565 21.40234375 43.41015625 C20.70818359 42.21712891 20.70818359 42.21712891 20 41 C19.54882812 40.06800781 19.09765625 39.13601562 18.6328125 38.17578125 C18.13523438 37.23089844 17.63765625 36.28601562 17.125 35.3125 C16.63257813 34.35988281 16.14015625 33.40726563 15.6328125 32.42578125 C14.21889126 29.87732719 14.21889126 29.87732719 11.83984375 28.984375 C10.92912109 28.49710938 10.92912109 28.49710938 10 28 C9.49609375 25.71484375 9.49609375 25.71484375 9.4375 22.9375 C9.18738131 18.17899189 8.32505819 14.3101993 6.62109375 9.875 C6 8 6 8 6 5 C5.05125 4.87625 4.1025 4.7525 3.125 4.625 C0 4 0 4 -2 2 C-1.34 2 -0.68 2 0 2 C0 1.34 0 0.68 0 0 Z " fill="#A17D40" transform="translate(112,27)"/>
<path d="M0 0 C0.33 0 0.66 0 1 0 C1.93857965 18.35444658 1.93857965 18.35444658 -4 25 C-4.66 25 -5.32 25 -6 25 C-6.226875 25.556875 -6.45375 26.11375 -6.6875 26.6875 C-8.36718835 29.6469509 -10.54133285 31.66126784 -13 34 C-13.556875 34.598125 -14.11375 35.19625 -14.6875 35.8125 C-16 37 -16 37 -18 37 C-18.66 38.32 -19.32 39.64 -20 41 C-20.99 41 -21.98 41 -23 41 C-22.86047311 33.32602097 -19.88386368 29.69784096 -15 24 C-9.08463611 16.55480063 -4.072734 8.59799401 0 0 Z " fill="#B97E3F" transform="translate(149,76)"/>
<path d="M0 0 C1.65 0 3.3 0 5 0 C5.19335938 0.88042969 5.38671875 1.76085937 5.5859375 2.66796875 C5.84632812 3.82941406 6.10671875 4.99085937 6.375 6.1875 C6.63023438 7.33605469 6.88546875 8.48460937 7.1484375 9.66796875 C7.89581631 12.59234546 8.88030654 15.20791333 10 18 C10.103125 19.134375 10.20625 20.26875 10.3125 21.4375 C11.02758589 25.14294507 12.07475289 26.55573286 14.6015625 29.2578125 C16.89610386 32.1163752 18.27032476 35.41268933 19.7890625 38.73046875 C21.6951791 42.30290018 23.1402911 43.71343037 27 45 C27 45.66 27 46.32 27 47 C25.88625 47.5878125 25.88625 47.5878125 24.75 48.1875 C21.24302997 50.49891206 19.84900171 53.36164179 18 57 C14.41511553 63.62660462 14.41511553 63.62660462 12.4453125 65.3984375 C10.55602624 67.49197092 10.37042639 69.10931491 9.9375 71.875 C9.50169582 74.58943748 9.04829064 76.88510157 7.98046875 79.42578125 C6.83080941 82.44420955 6.58711385 85.09543992 6.375 88.3125 C6.30023438 89.38113281 6.22546875 90.44976562 6.1484375 91.55078125 C6.09945312 92.35902344 6.05046875 93.16726562 6 94 C5.40832031 93.98839844 4.81664063 93.97679688 4.20703125 93.96484375 C-0.00231785 93.91677614 -3.8922333 93.93993117 -8 95 C-8 94.01 -8 93.02 -8 92 C-5.24921116 91.08307039 -3.64051087 90.89113917 -0.8125 90.9375 C0.445625 90.958125 1.70375 90.97875 3 91 C2.9175 90.071875 2.835 89.14375 2.75 88.1875 C2.71283968 83.60749052 4.46511973 79.85108164 6.12890625 75.6484375 C7.2093056 72.85102807 7.2093056 72.85102807 6.9375 69.125 C7 66 7 66 9.125 63.75 C10.548125 62.38875 10.548125 62.38875 12 61 C13.62905141 58.25019454 15.09480343 55.4381477 16.57421875 52.60546875 C18.11076439 49.79758946 19.86336275 47.38317232 22 45 C21.34 45 20.68 45 20 45 C17.32164114 41.49042633 15.4109165 37.84970632 13.5 33.875 C12.08288105 30.93141651 11.17542971 29.16081057 8.75 26.9375 C6.31067907 24.23682326 6.5141112 21.91640552 6.28125 18.37109375 C5.99251931 15.93693366 5.37315763 14.06934085 4.4375 11.8125 C3.04164004 8.43126642 2.72318347 5.69088708 3 2 C2.01 2 1.02 2 0 2 C0 1.34 0 0.68 0 0 Z " fill="#251F16" transform="translate(118,26)"/>
<path d="M0 0 C0.66 0.33 1.32 0.66 2 1 C-3.42903199 12.55113188 -3.42903199 12.55113188 -7.25 17.125 C-10.1641417 20.77335402 -10.89107475 23.99530963 -11.56640625 28.5625 C-11.987608 30.93033687 -12.6649017 32.80548959 -13.625 35 C-15.50247986 39.60407121 -15.27095036 44.1028232 -15 49 C-17.92883552 49.86608906 -20.27756778 50.00644213 -23.3125 49.8125 C-32.60207879 49.72992597 -42.55282998 52.35779534 -50.1484375 57.76171875 C-53.50917977 60.00930377 -57.27603638 61.45696878 -61 63 C-59.49874363 58.71339377 -56.82022865 57.47602361 -52.9375 55.375 C-48.75747326 53.39931366 -48.75747326 53.39931366 -46 50 C-43.49609375 49.5859375 -43.49609375 49.5859375 -40.4375 49.375 C-39.42558594 49.30023438 -38.41367188 49.22546875 -37.37109375 49.1484375 C-36.58863281 49.09945312 -35.80617188 49.05046875 -35 49 C-35 48.01 -35 47.02 -35 46 C-34.01 46 -33.02 46 -32 46 C-32 46.66 -32 47.32 -32 48 C-30.9790625 47.505 -30.9790625 47.505 -29.9375 47 C-26.46150705 45.81668325 -23.65036451 45.79337559 -20 46 C-19.01 46.495 -19.01 46.495 -18 47 C-18.05220703 45.82244141 -18.05220703 45.82244141 -18.10546875 44.62109375 C-18.27458658 38.05771111 -17.81911286 33.86375474 -15 28 C-14.85639628 26.67033597 -14.75377781 25.33575287 -14.6875 24 C-14.29592614 19.74979209 -12.43525186 17.86087664 -9.55078125 14.859375 C-7.3195327 12.18412485 -6.24599063 9.22594753 -4.9453125 6.0234375 C-3.75083262 3.46665825 -2.16989607 1.78241463 0 0 Z " fill="#48361A" transform="translate(142,73)"/>
<path d="M0 0 C4.11832203 1.19587014 7.85366694 3.42178751 11.625 5.4375 C12.75164062 6.03433594 13.87828125 6.63117187 15.0390625 7.24609375 C18 9 18 9 19.56640625 10.65625 C21.63744944 12.5975003 23.53513999 12.66683184 26.3125 13.0625 C30.38730036 13.7056051 34.12531599 14.53390335 38 16 C38 16.99 38 17.98 38 19 C36.6078125 18.7525 36.6078125 18.7525 35.1875 18.5 C30.14266379 17.76299718 25.08564289 17.91723185 20 18 C19.773125 17.21625 19.54625 16.4325 19.3125 15.625 C18.24575581 12.83348453 18.24575581 12.83348453 15.69140625 11.8515625 C14.80324219 11.57054687 13.91507813 11.28953125 13 11 C10.4509097 9.70385239 7.92578316 8.36875343 5.40234375 7.0234375 C2.82188069 5.73871173 2.82188069 5.73871173 -1 6 C-3.43656897 6.98656877 -5.7215717 8.01338954 -8.0625 9.1875 C-8.99932617 9.62545898 -8.99932617 9.62545898 -9.95507812 10.07226562 C-13.99564717 12.07745731 -16.07443135 13.91610166 -18 18 C-19.58367747 17.85795259 -21.16693318 17.71119847 -22.75 17.5625 C-23.63171875 17.48128906 -24.5134375 17.40007813 -25.421875 17.31640625 C-27.69350452 17.03761535 -29.79851823 16.61209423 -32 16 C-30.3586923 14.02938534 -29.48228545 13.08579985 -26.9140625 12.62890625 C-25.3932983 12.58478852 -23.87246145 12.54310468 -22.3515625 12.50390625 C-19.1512775 11.81813089 -17.50040225 10.08241332 -15 8 C-12.98562801 6.90648378 -10.94238174 5.8646489 -8.875 4.875 C-5.74761893 3.36980163 -2.89127178 1.92751452 0 0 Z " fill="#C19956" transform="translate(74,10)"/>
<path d="M0 0 C3.28417619 3.07891517 6.0575708 6.31043677 8.8125 9.875 C12.75777854 14.88333271 17.20402256 20.10201128 23 23 C23 25.31 23 27.62 23 30 C21.02 30.99 21.02 30.99 19 32 C17.32756598 30.71580959 15.66218553 29.42242815 14 28.125 C13.071875 27.40570313 12.14375 26.68640625 11.1875 25.9453125 C10.465625 25.30335937 9.74375 24.66140625 9 24 C9 23.34 9 22.68 9 22 C8.34 22 7.68 22 7 22 C4.875 20.125 4.875 20.125 3 18 C3 17.34 3 16.68 3 16 C2.34 16 1.68 16 1 16 C-0.50156874 12.99686252 -0.09281204 10.20932478 -0.0625 6.875 C-0.05347656 5.59367187 -0.04445312 4.31234375 -0.03515625 2.9921875 C-0.02355469 2.00476563 -0.01195312 1.01734375 0 0 Z " fill="#B97E3F" transform="translate(0,88)"/>
<path d="M0 0 C0.33 0 0.66 0 1 0 C1.19335938 0.65226562 1.38671875 1.30453125 1.5859375 1.9765625 C1.84632812 2.85054688 2.10671875 3.72453125 2.375 4.625 C2.78298828 5.99978516 2.78298828 5.99978516 3.19921875 7.40234375 C3.79991815 9.350954 4.4756324 11.2766975 5.1875 13.1875 C6.1578264 16.54632214 6.13911629 19.52209285 6 23 C7.3921875 22.87625 7.3921875 22.87625 8.8125 22.75 C12.39585648 22.72098497 15.11911826 23.68743675 18.4375 25 C23.27353771 26.89700927 26.84235093 27.38925653 32 27 C32.226875 27.61875 32.45375 28.2375 32.6875 28.875 C34.41649197 31.67432033 35.93716003 31.89179294 39 33 C40.73017173 33.66405392 42.45935032 34.33070149 44.1875 35 C45.04730469 35.33 45.90710938 35.66 46.79296875 36 C49 37 49 37 51 39 C54.92667729 38.77561844 57.77338919 37.11906707 61.09375 35.109375 C63.74483075 33.56653293 66.5132711 32.30335527 69.30078125 31.02734375 C71.3306703 29.964449 71.3306703 29.964449 73 27 C76.2578125 26.48828125 76.2578125 26.48828125 80.125 26.3125 C81.40632813 26.24675781 82.68765625 26.18101563 84.0078125 26.11328125 C85.48894531 26.05720703 85.48894531 26.05720703 87 26 C86.01 27.485 86.01 27.485 85 29 C82.3984375 29.29296875 82.3984375 29.29296875 79.375 29.1875 C77.87066406 29.14689453 77.87066406 29.14689453 76.3359375 29.10546875 C75.56507812 29.07066406 74.79421875 29.03585938 74 29 C73.74855225 29.61351318 73.49710449 30.22702637 73.23803711 30.85913086 C71.79503936 33.3544271 70.74754109 33.99197871 68.19140625 35.25390625 C67.44439453 35.63353516 66.69738281 36.01316406 65.92773438 36.40429688 C65.14720703 36.78650391 64.36667969 37.16871094 63.5625 37.5625 C62.01956492 38.32948598 60.47909391 39.10145349 58.94140625 39.87890625 C58.25763916 40.2147876 57.57387207 40.55066895 56.86938477 40.89672852 C54.91368108 42.05094361 53.52929542 43.33192139 52 45 C51.4740625 44.23945313 50.948125 43.47890625 50.40625 42.6953125 C47.63443469 39.59051938 45.31722668 38.47718459 41.5 36.875 C35.33190881 34.25780535 35.33190881 34.25780535 32.91796875 32.3828125 C30.53563924 30.6652063 28.70800008 30.40110824 25.8125 30 C22.12929451 29.4220502 18.80654882 28.67313619 15.3125 27.375 C11.04544607 25.84224958 7.51171249 25.75390659 3 26 C3.0825 24.72125 3.165 23.4425 3.25 22.125 C3.28070716 17.25023783 1.83787067 13.71325255 -0.10546875 9.3046875 C-1.22184875 6.42842461 -1.39129072 4.05206761 -1 1 C-0.67 0.67 -0.34 0.34 0 0 Z " fill="#201C15" transform="translate(22,94)"/>
<path d="M0 0 C5.63901875 -0.16992579 10.5443602 0.27961429 16 1.6875 C16.70205566 1.86611572 17.40411133 2.04473145 18.12744141 2.22875977 C22.66079287 3.45568566 26.32593061 4.95812704 30.1171875 7.6953125 C33.80896661 10.25351628 37.96111164 12.05504352 42 14 C35.83346018 17.08326991 24.61093001 13.05777041 18.32226562 10.96362305 C11.53792779 8.56724416 5.0769303 5.91278133 -1 2 C-0.67 1.34 -0.34 0.68 0 0 Z " fill="#BB6554" transform="translate(27,122)"/>
<path d="M0 0 C0.66 0 1.32 0 2 0 C2.66 2.31 3.32 4.62 4 7 C4.99 7 5.98 7 7 7 C7.391875 8.051875 7.78375 9.10375 8.1875 10.1875 C9.78820079 13.94763677 12.03326865 16.17798725 15 19 C18.901084 23.93372388 20.43726572 29.00951861 22 35 C15.30718167 30.5138057 10.18121481 25.13668598 5 19 C4.44570312 18.41347656 3.89140625 17.82695313 3.3203125 17.22265625 C-0.65427894 12.63054354 -0.42993849 8.29713902 -0.17578125 2.37890625 C-0.11777344 1.59386719 -0.05976563 0.80882813 0 0 Z " fill="#B2832F" transform="translate(0,76)"/>
<path d="M0 0 C0.66 0.33 1.32 0.66 2 1 C1.66226563 1.45890625 1.32453125 1.9178125 0.9765625 2.390625 C-2.36308951 6.98192426 -2.36308951 6.98192426 -5 12 C-6 9 -6 9 -6 7 C-6.58007812 7.29003906 -7.16015625 7.58007812 -7.7578125 7.87890625 C-9.796875 8.8984375 -11.8359375 9.91796875 -13.875 10.9375 C-14.56980469 11.28554687 -15.26460937 11.63359375 -15.98046875 11.9921875 C-17.71241087 12.85648357 -19.4494652 13.71052216 -21.1875 14.5625 C-24.01056543 15.95708734 -24.01056543 15.95708734 -26.625 17.625 C-31.2739361 20.31648932 -35.85261292 20.18278409 -41.125 20.1875 C-41.85332031 20.19974609 -42.58164062 20.21199219 -43.33203125 20.22460938 C-45.22282978 20.22985188 -47.11315581 20.12233385 -49 20 C-51 18 -51 18 -51.125 14.875 C-51.08375 13.92625 -51.0425 12.9775 -51 12 C-50.31550781 12.32484375 -49.63101563 12.6496875 -48.92578125 12.984375 C-45.52065859 14.16639355 -42.7871794 14.2658751 -39.1875 14.25 C-38.02605469 14.25515625 -36.86460938 14.2603125 -35.66796875 14.265625 C-28.20605205 13.72525191 -22.31164215 11.42415206 -15.75 7.9375 C-14.37171537 7.21377248 -12.99156131 6.49359164 -11.609375 5.77734375 C-11.01092773 5.46015381 -10.41248047 5.14296387 -9.79589844 4.81616211 C-7.86034405 3.9365321 -6.09614132 3.36022377 -4 3 C-3.34 3.33 -2.68 3.66 -2 4 C-1.34 2.68 -0.68 1.36 0 0 Z " fill="#BB8447" transform="translate(77,64)"/>
<path d="M0 0 C1.32 0 2.64 0 4 0 C15.35181743 11.81634193 15.67493012 30.97781656 15.37109375 46.15234375 C15.2606591 50.7393409 15.2606591 50.7393409 13 53 C11 51 11 51 10.91015625 47.8671875 C10.96042969 46.54976562 11.01070312 45.23234375 11.0625 43.875 C11.36115196 28.60555026 7.68949251 15.18198717 0 2 C0 1.34 0 0.68 0 0 Z " fill="#A67545" transform="translate(121,0)"/>
<path d="M0 0 C0.99 0 1.98 0 3 0 C2.73316406 0.66386719 2.46632813 1.32773438 2.19140625 2.01171875 C0.75826166 5.6063273 -0.66697394 9.2031467 -2.0625 12.8125 C-2.33126953 13.48603516 -2.60003906 14.15957031 -2.87695312 14.85351562 C-6.04363942 23.10585272 -6.18151693 31.19623883 -6.1875 39.9375 C-6.19974609 40.87529297 -6.21199219 41.81308594 -6.22460938 42.77929688 C-6.23718256 48.81023489 -5.4874796 54.17114694 -4 60 C-3.64963394 61.99708656 -3.30830925 63.99598989 -3 66 C-3.99 66.495 -3.99 66.495 -5 67 C-5.65077296 64.95990245 -6.29539824 62.91784331 -6.9375 60.875 C-7.29714844 59.73804688 -7.65679687 58.60109375 -8.02734375 57.4296875 C-13.65446867 37.58785745 -9.18672041 17.95008966 0 0 Z " fill="#AA7339" transform="translate(11,0)"/>
<path d="M0 0 C0.99 0 1.98 0 3 0 C13.87459725 20.58866437 15.07647982 40.54866365 10 63 C9.34 62.34 8.68 61.68 8 61 C8.0234375 58.8125 8.0234375 58.8125 8.375 56 C9.95178733 39.92446089 10.32990349 22.63531502 2.91796875 7.83984375 C1.65914401 5.31683757 0.82768435 2.68997414 0 0 Z " fill="#AA7339" transform="translate(130,0)"/>
<path d="M0 0 C2.3125 0.1875 2.3125 0.1875 5 1 C5.39445312 1.75539062 5.78890625 2.51078125 6.1953125 3.2890625 C8.66572978 7.00003565 11.62474627 8.27636692 15.5625 10.1875 C22.80568609 13.80568609 22.80568609 13.80568609 25 16 C27.32275177 16.40047444 29.65739357 16.7397104 32 17 C32 17.33 32 17.66 32 18 C29.03 18.33 26.06 18.66 23 19 C23 18.34 23 17.68 23 17 C20.56641524 15.76795959 18.11775983 14.58204258 15.65234375 13.4140625 C14.41394867 12.81794474 13.17567024 12.22158462 11.9375 11.625 C11.31294922 11.33367188 10.68839844 11.04234375 10.04492188 10.7421875 C6.44744902 8.99144297 4.07844804 7.45646671 2 4 C1.32324219 4.74894531 0.64648438 5.49789063 -0.05078125 6.26953125 C-3.01039872 9.22914872 -6.414362 10.95666658 -10.1875 12.6875 C-14.93256926 14.81953576 -14.93256926 14.81953576 -19 18 C-22.625 17.625 -22.625 17.625 -26 17 C-26 16.67 -26 16.34 -26 16 C-25.18917969 15.75894531 -24.37835938 15.51789062 -23.54296875 15.26953125 C-19.26324359 13.73600239 -15.3370839 11.78833974 -11.3125 9.6875 C-10.55388672 9.30916016 -9.79527344 8.93082031 -9.01367188 8.54101562 C-4.71114992 6.29671688 -2.05049982 4.61566692 0 0 Z " fill="#5C4B26" transform="translate(73,2)"/>
<path d="M0 0 C-3.75433057 3.19517495 -8.03268332 5.02254929 -12.5 7 C-13.30010498 7.35449219 -14.10020996 7.70898438 -14.92456055 8.07421875 C-22.69747734 11.43412975 -30.43236009 14.24610815 -39 14 C-36.46491767 11.08160626 -33.63451212 9.63282294 -30.1875 7.9375 C-29.17042969 7.43089844 -28.15335938 6.92429688 -27.10546875 6.40234375 C-24.10519562 5.04750343 -21.13802325 3.98719607 -18 3 C-17.17757812 2.71898438 -16.35515625 2.43796875 -15.5078125 2.1484375 C-10.11151984 0.39685398 -5.66887779 -0.31493765 0 0 Z " fill="#BC6753" transform="translate(121,122)"/>
<path d="M0 0 C0.93830342 3.11805446 1.1025502 5.75493621 0.875 9 C0.83117187 9.845625 0.78734375 10.69125 0.7421875 11.5625 C-0.27698999 14.90969345 -2.27511359 15.87080515 -5 18 C-6.78953583 20.89541614 -6.78953583 20.89541614 -8.1875 24.0625 C-9.66995438 27.22689472 -11.05885141 30.08827711 -13 33 C-12.63571127 36.08101825 -11.37354093 38.24950899 -9.6875 40.8125 C-9.24535156 41.5034375 -8.80320312 42.194375 -8.34765625 42.90625 C-7.90292969 43.5971875 -7.45820313 44.288125 -7 45 C-5.52978408 47.3083764 -4.24762764 49.5527304 -3 52 C-3.33 52.99 -3.66 53.98 -4 55 C-9.119625 49.44155 -12.60721989 43.17834034 -15 36 C-17.01508358 35.26676204 -17.01508358 35.26676204 -19 35 C-19 34.34 -19 33.68 -19 33 C-18.42378906 32.82339844 -17.84757812 32.64679688 -17.25390625 32.46484375 C-13.90711279 30.28971802 -12.63977257 27.04904285 -10.9375 23.5625 C-7.35860919 16.35699983 -7.35860919 16.35699983 -5.42236328 14.42944336 C-3.44826933 12.44552299 -3.35651909 10.73379448 -2.9375 8 C-2.39260956 4.51270117 -2.01369592 3.02054387 0 0 Z " fill="#292218" transform="translate(24,38)"/>
<path d="M0 0 C0.66 0.33 1.32 0.66 2 1 C2 1.99 2 2.98 2 4 C0.58603098 4.50757862 -0.83131729 5.00574925 -2.25 5.5 C-3.43335938 5.91765625 -3.43335938 5.91765625 -4.640625 6.34375 C-7 7 -7 7 -11 7 C-11.1546875 8.7634375 -11.1546875 8.7634375 -11.3125 10.5625 C-11.68528906 13.6818673 -12.24278317 15.5438343 -13.5625 18.5 C-14.93078219 21.83146969 -15.0861705 22.82259684 -14.8125 26.1875 C-14.874375 27.445625 -14.93625 28.70375 -15 30 C-18.11783725 32.77141089 -19.79846504 34 -24 34 C-23.0230611 31.82067476 -22.25740354 30.22873074 -20.45703125 28.62890625 C-18.62610958 26.58200454 -18.61370077 25.45986842 -18.5 22.75 C-18.15737361 18.33868526 -16.80206935 15.05465604 -15 11 C-14.5945897 8.67810464 -14.23927006 6.34484656 -14 4 C-13.40832031 3.87882812 -12.81664062 3.75765625 -12.20703125 3.6328125 C-8.69180288 2.88733177 -5.40231099 2.16263636 -2.0625 0.8125 C-1.381875 0.544375 -0.70125 0.27625 0 0 Z " fill="#9F7B3E" transform="translate(42,24)"/>
<path d="M0 0 C-1 3 -1 3 -4.2109375 4.90234375 C-5.59306706 5.59265272 -6.98153575 6.27036735 -8.375 6.9375 C-9.09582764 7.29086426 -9.81665527 7.64422852 -10.55932617 8.00830078 C-15.55285035 10.41590271 -20.59084745 12.48306486 -25.86328125 14.2109375 C-28.24784716 14.99759392 -28.24784716 14.99759392 -31 17 C-34.14930893 18.04976964 -36.38814456 18.10131595 -39.6875 18.0625 C-40.68136719 18.05347656 -41.67523438 18.04445312 -42.69921875 18.03515625 C-43.83810547 18.01775391 -43.83810547 18.01775391 -45 18 C-44.44140625 16.08203125 -44.44140625 16.08203125 -43 14 C-39.90234375 13.19921875 -39.90234375 13.19921875 -35.9375 12.6875 C-24.35245025 10.91608972 -13.98388286 6.15763981 -3.6640625 0.74975586 C-2 0 -2 0 0 0 Z " fill="#A99805" transform="translate(123,122)"/>
<path d="M0 0 C-2.33721348 3.50582022 -3.03968653 3.84490857 -7 5 C-8.66575797 5.11780854 -10.33260678 5.22069412 -12 5.3125 C-17.0311856 5.72744314 -18.58857109 7.23868094 -22 11 C-26.13944388 13.27219474 -30.39551909 14.95590002 -35 16 C-34.05154721 12.51841242 -33.41869078 11.25603393 -30.28515625 9.33984375 C-29.22167969 8.87707031 -28.15820312 8.41429688 -27.0625 7.9375 C-22.66054132 6.11073111 -22.66054132 6.11073111 -19.39453125 2.82421875 C-18 1 -18 1 -15.9140625 0.6796875 C-14.78097656 0.77636719 -14.78097656 0.77636719 -13.625 0.875 C-8.63160674 1.12588362 -4.71574468 -1.7465721 0 0 Z " fill="#BC9452" transform="translate(112,116)"/>
<path d="M0 0 C0.33 0 0.66 0 1 0 C1.59551568 5.71695055 0.40162446 8.69983599 -2.7109375 13.49609375 C-3.13632813 13.99238281 -3.56171875 14.48867187 -4 15 C-4.66 15 -5.32 15 -6 15 C-6.226875 15.556875 -6.45375 16.11375 -6.6875 16.6875 C-8.36718835 19.6469509 -10.54133285 21.66126784 -13 24 C-13.556875 24.598125 -14.11375 25.19625 -14.6875 25.8125 C-16 27 -16 27 -18 27 C-18.66 28.32 -19.32 29.64 -20 31 C-20.99 31 -21.98 31 -23 31 C-22.52794881 26.75153925 -20.11122478 24.73180712 -17 22 C-16.34 22 -15.68 22 -15 22 C-15 21.34 -15 20.68 -15 20 C-14.34 20 -13.68 20 -13 20 C-12.566875 19.1028125 -12.566875 19.1028125 -12.125 18.1875 C-11 16 -11 16 -9 13 C-8.34 13 -7.68 13 -7 13 C-7 12.34 -7 11.68 -7 11 C-6.34 11 -5.68 11 -5 11 C-4.731875 10.113125 -4.46375 9.22625 -4.1875 8.3125 C-3.07959847 5.22203785 -1.83465282 2.71209548 0 0 Z " fill="#BB6755" transform="translate(149,86)"/>
<path d="M0 0 C0.33 0.99 0.66 1.98 1 3 C-2.06117568 5.62386487 -2.73173127 6 -7 6 C-6.67 7.32 -6.34 8.64 -6 10 C-6.9075 10.433125 -7.815 10.86625 -8.75 11.3125 C-12.63786468 13.30106221 -12.63786468 13.30106221 -16 16 C-16.0825 16.804375 -16.165 17.60875 -16.25 18.4375 C-16.4975 19.283125 -16.745 20.12875 -17 21 C-18.7265625 21.9296875 -18.7265625 21.9296875 -20.875 22.8125 C-24.09126609 24.26240886 -25.60038534 25.25666879 -26.9375 28.5625 C-28.41740486 33.58089531 -28.72265726 38.79743275 -29 44 C-29.33 44 -29.66 44 -30 44 C-30.33589771 36.6475723 -30.56550026 29.64609248 -27 23 C-24.6875 20.875 -24.6875 20.875 -22 19 C-20.44713642 17.23902068 -18.98059203 15.42967077 -17.52734375 13.5859375 C-16 12 -16 12 -13.99609375 11.01171875 C-11.64853474 9.82186007 -10.67865586 8.53976316 -9.125 6.4375 C-6.85030716 3.64055626 -6.25966452 3.07212903 -2.625 2.0625 C-1.75875 2.041875 -0.8925 2.02125 0 2 C0 1.34 0 0.68 0 0 Z " fill="#AC7A42" transform="translate(115,57)"/>
<path d="M0 0 C0.66 0.33 1.32 0.66 2 1 C-11.66643315 9.11618785 -26.00785485 14.60095744 -42 14 C-42 13.34 -42 12.68 -42 12 C-41.24074219 11.95101562 -40.48148437 11.90203125 -39.69921875 11.8515625 C-38.70535156 11.77679688 -37.71148437 11.70203125 -36.6875 11.625 C-35.70136719 11.55539063 -34.71523437 11.48578125 -33.69921875 11.4140625 C-30.78471567 11.16134528 -30.78471567 11.16134528 -28 9 C-28 8.67 -28 8.34 -28 8 C-25.93771534 7.51990738 -23.87516299 7.04096456 -21.8125 6.5625 C-20.66394531 6.29566406 -19.51539062 6.02882812 -18.33203125 5.75390625 C-16.36265676 5.30831507 -14.38611257 4.89031141 -12.3984375 4.53515625 C-8.80424061 3.73319375 -5.57430676 2.20622033 -2.20703125 0.7421875 C-1.47871094 0.49726563 -0.75039062 0.25234375 0 0 Z " fill="#B34E00" transform="translate(120,128)"/>
<path d="M0 0 C1.7074998 1.28062485 3.37373596 2.61767557 5 4 C5 4.66 5 5.32 5 6 C5.66 6 6.32 6 7 6 C9.125 7.875 9.125 7.875 11 10 C11 10.66 11 11.32 11 12 C11.53625 12.226875 12.0725 12.45375 12.625 12.6875 C16.56378456 14.86419673 19.82029144 17.82029144 23 21 C21.02 21.99 21.02 21.99 19 23 C17.32756598 21.71580959 15.66218553 20.42242815 14 19.125 C13.071875 18.40570313 12.14375 17.68640625 11.1875 16.9453125 C10.465625 16.30335937 9.74375 15.66140625 9 15 C9 14.34 9 13.68 9 13 C8.34 13 7.68 13 7 13 C4.875 11.125 4.875 11.125 3 9 C3 8.34 3 7.68 3 7 C2.34 7 1.68 7 1 7 C0.67 4.69 0.34 2.38 0 0 Z " fill="#BA6654" transform="translate(0,97)"/>
<path d="M0 0 C0.99 0.33 1.98 0.66 3 1 C2.62488281 1.54785156 2.24976563 2.09570312 1.86328125 2.66015625 C-9.06177451 19.58436102 -9.5729992 36.50604567 -8 56 C-10 55 -10 55 -10.61230469 53.26586914 C-11.39420825 48.69606624 -11.22753801 44.06186247 -11.25 39.4375 C-11.270625 38.40302734 -11.29125 37.36855469 -11.3125 36.30273438 C-11.3661889 25.58508792 -8.81394952 16.72752522 -3.8125 7.3125 C-3.44447266 6.59900391 -3.07644531 5.88550781 -2.69726562 5.15039062 C-1.80754369 3.42872091 -0.90517429 1.71359599 0 0 Z " fill="#B67845" transform="translate(21,0)"/>
<path d="M0 0 C19.1 4.7 19.1 4.7 26 7 C28.05893621 7.22325814 30.12233653 7.40705759 32.1875 7.5625 C33.81751953 7.68818359 33.81751953 7.68818359 35.48046875 7.81640625 C36.72763672 7.90728516 36.72763672 7.90728516 38 8 C38.495 9.485 38.495 9.485 39 11 C24.85885347 10.63694104 13.06327052 7.54378072 0 2 C0 1.34 0 0.68 0 0 Z " fill="#E88800" transform="translate(33,131)"/>
<path d="M0 0 C-0.57028468 4.51195817 -2.33638709 7.55495852 -4.75 11.375 C-5.10980957 11.94500732 -5.46961914 12.51501465 -5.84033203 13.10229492 C-8.43005344 17.17724652 -11.00481881 21.21197673 -14 25 C-14.66 25 -15.32 25 -16 25 C-16.36026023 21.84772297 -16.33503066 20.43811702 -14.375 17.875 C-13.59125 16.92625 -12.8075 15.9775 -12 15 C-10.45935749 12.23590608 -9.00104792 9.43955312 -7.5625 6.62109375 C-3.61549925 0 -3.61549925 0 0 0 Z " fill="#B6852E" transform="translate(147,74)"/>
<path d="M0 0 C0.33 0 0.66 0 1 0 C2.26290533 9.26130576 -3.42114371 17.10093808 -8.75439453 24.23388672 C-12.24476347 28.77957438 -15.87995584 33.01214977 -20 37 C-19.34 34.69 -18.68 32.38 -18 30 C-17.34 30 -16.68 30 -16 30 C-15.71624512 29.41299316 -15.43249023 28.82598633 -15.14013672 28.22119141 C-14.10728339 26.20900735 -12.99450101 24.35212922 -11.7578125 22.4609375 C-7.08314127 15.21404482 -2.6655255 8.27506424 0 0 Z " fill="#A06933" transform="translate(149,69)"/>
<path d="M0 0 C1.98 0 3.96 0 6 0 C6 0.66 6 1.32 6 2 C8.33681392 3.79229757 8.33681392 3.79229757 11.25 5.5625 C12.71179688 6.49255859 12.71179688 6.49255859 14.203125 7.44140625 C16.56819609 8.75937184 18.36190757 9.54147441 21 10 C21 10.66 21 11.32 21 12 C21.85658203 12.25523437 21.85658203 12.25523437 22.73046875 12.515625 C29.8323436 14.63828394 36.91766018 16.81313332 44 19 C44 19.33 44 19.66 44 20 C28.80014664 19.21380069 14.17240414 11.83216529 2 3 C1.34 2.01 0.68 1.02 0 0 Z " fill="#741000" transform="translate(12,121)"/>
<path d="M0 0 C0.66 0 1.32 0 2 0 C3.28423159 2.43119376 4.55210801 4.86897298 5.8125 7.3125 C6.16892578 7.98345703 6.52535156 8.65441406 6.89257812 9.34570312 C11.99178597 19.3102102 13.45321729 28.56144018 13.1875 39.6875 C13.17396484 40.78255859 13.16042969 41.87761719 13.14648438 43.00585938 C13.11156837 45.67111414 13.06253717 48.33527504 13 51 C12.34 51 11.68 51 11 51 C11.03480469 50.030625 11.06960937 49.06125 11.10546875 48.0625 C11.52078576 31.23368513 8.54470627 16.64806789 0 2 C0 1.34 0 0.68 0 0 Z " fill="#B67845" transform="translate(121,0)"/>
<path d="M0 0 C0.75 1.625 0.75 1.625 1 4 C-3.97772415 13.50292792 -12.92396863 21.16496635 -21 28 C-21.33 27.01 -21.66 26.02 -22 25 C-19.9650473 21.77799156 -17.68922238 19.70492036 -14.5625 17.625 C-11.80051161 15.76984471 -10.05885632 13.9391689 -8.1875 11.1875 C-7.465625 10.135625 -6.74375 9.08375 -6 8 C-5.34 8 -4.68 8 -4 8 C-3.71125 7.236875 -3.4225 6.47375 -3.125 5.6875 C-2 3 -2 3 0 0 Z " fill="#8C850B" transform="translate(149,93)"/>
<path d="M0 0 C2.64 0 5.28 0 8 0 C8 7.26 8 14.52 8 22 C6.55607532 19.11215063 5.40042832 16.52449567 4.375 13.5 C4.11460937 12.7471875 3.85421875 11.994375 3.5859375 11.21875 C3 9 3 9 3 5 C2.34 5 1.68 5 1 5 C0.67 3.35 0.34 1.7 0 0 Z " fill="#AD7D2F" transform="translate(142,0)"/>
<path d="M0 0 C0.57234375 0.71800781 1.1446875 1.43601562 1.734375 2.17578125 C3.19290927 3.99391966 4.66095793 5.80448711 6.140625 7.60546875 C6.83671875 8.45753906 7.5328125 9.30960938 8.25 10.1875 C8.95640625 11.04730469 9.6628125 11.90710938 10.390625 12.79296875 C12 15 12 15 12 17 C12.66 17 13.32 17 14 17 C15.68762851 18.6454378 17.3540349 20.31288577 19 22 C19.66 22.33 20.32 22.66 21 23 C21.625 25.5625 21.625 25.5625 22 28 C13.16166345 22.07566542 5.53451095 14.10516318 0 5 C-0.3125 2.0625 -0.3125 2.0625 0 0 Z " fill="#9E6933" transform="translate(0,83)"/>
<path d="M0 0 C10.921095 0.92551653 20.98378266 2.45882272 30 9 C26.49614859 10.16795047 25.35565134 9.76147133 21.875 8.75 C20.89789063 8.46640625 19.92078125 8.1828125 18.9140625 7.890625 C12.43990633 5.91192848 6.18413571 3.76312447 0 1 C0 0.67 0 0.34 0 0 Z " fill="#A38A49" transform="translate(29,122)"/>
<path d="M0 0 C4.00486868 3.40839888 7.98593705 6.84237747 11.9375 10.3125 C12.70964844 10.98925781 13.48179688 11.66601562 14.27734375 12.36328125 C14.84582031 12.90339844 15.41429687 13.44351563 16 14 C16 14.33 16 14.66 16 15 C12.09428507 15.4295141 10.46139637 15.33467483 7.2265625 12.98828125 C6.36804688 12.10527344 5.50953125 11.22226563 4.625 10.3125 C3.75101562 9.44238281 2.87703125 8.57226562 1.9765625 7.67578125 C-0.18287784 4.75242822 -0.4716021 3.53701573 0 0 Z " fill="#F29200" transform="translate(0,106)"/>
<path d="M0 0 C0.66 0.33 1.32 0.66 2 1 C0.35 3.97 -1.3 6.94 -3 10 C-13.17857143 9.0625 -13.17857143 9.0625 -17 8 C-15.3586923 6.02938534 -14.48228545 5.08579985 -11.9140625 4.62890625 C-11.15867187 4.60699219 -10.40328125 4.58507812 -9.625 4.5625 C-5.31494867 4.23907037 -3.1189895 3.1189895 0 0 Z " fill="#B7904F" transform="translate(59,18)"/>
<path d="M0 0 C0.33 0.66 0.66 1.32 1 2 C1.66 2 2.32 2 3 2 C3 2.66 3 3.32 3 4 C4.32 4.66 5.64 5.32 7 6 C7 6.66 7 7.32 7 8 C7.66 8 8.32 8 9 8 C9 8.66 9 9.32 9 10 C9.57234375 10.26683594 10.1446875 10.53367187 10.734375 10.80859375 C13.09311961 12.04896807 15.123112 13.45945664 17.25 15.0625 C17.95640625 15.58972656 18.6628125 16.11695312 19.390625 16.66015625 C19.92171875 17.10230469 20.4528125 17.54445313 21 18 C21 18.33 21 18.66 21 19 C18.38732523 19.45501639 16.64704479 19.44007827 14.41699219 17.92333984 C12.67790099 16.39659757 11.01977667 14.81537828 9.375 13.1875 C8.80265625 12.64029297 8.2303125 12.09308594 7.640625 11.52929688 C6.08026696 10.03244178 4.53547373 8.5223302 3 7 C2.165896 6.29097534 2.165896 6.29097534 1.31494141 5.56762695 C-0 4 -0 4 0 0 Z " fill="#8A850A" transform="translate(0,102)"/>
<path d="M0 0 C5.19169867 -0.29264272 9.66735255 -0.34020749 14.5625 1.5625 C19.37468398 3.40144174 22.96991125 2.87826946 28 2 C28.99 3.485 28.99 3.485 30 5 C29.01 6.485 29.01 6.485 28 8 C27.34 7.67 26.68 7.34 26 7 C26 6.34 26 5.68 26 5 C25.29617187 5.04640625 24.59234375 5.0928125 23.8671875 5.140625 C15.17751964 5.45826299 8.22269722 3.72468074 0 1 C0 0.67 0 0.34 0 0 Z " fill="#544020" transform="translate(98,20)"/>
<path d="M0 0 C3.85025879 0.60355408 6.86101159 1.76772603 10.3125 3.5625 C11.19550781 4.01753906 12.07851563 4.47257812 12.98828125 4.94140625 C13.65214844 5.29074219 14.31601562 5.64007813 15 6 C15 7.32 15 8.64 15 10 C11.01957832 9.41190166 8.13752781 8.17968323 4.6875 6.125 C3.80449219 5.61195312 2.92148437 5.09890625 2.01171875 4.5703125 C1.34785156 4.05210938 0.68398438 3.53390625 0 3 C0 2.01 0 1.02 0 0 Z " fill="#A69707" transform="translate(18,121)"/>
<path d="M0 0 C-2 2 -2 2 -4.6015625 2.1953125 C-5.59929687 2.17210938 -6.59703125 2.14890625 -7.625 2.125 C-9.12933594 2.09792969 -9.12933594 2.09792969 -10.6640625 2.0703125 C-11.43492188 2.04710938 -12.20578125 2.02390625 -13 2 C-13.25007813 2.61101562 -13.50015625 3.22203125 -13.7578125 3.8515625 C-15.20359159 6.35212382 -16.31818076 7.09176619 -18.875 8.375 C-19.55304688 8.73335937 -20.23109375 9.09171875 -20.9296875 9.4609375 C-23 10 -23 10 -25.2578125 9.1015625 C-25.83273438 8.73804688 -26.40765625 8.37453125 -27 8 C-26.39671875 7.75765625 -25.7934375 7.5153125 -25.171875 7.265625 C-20.13046197 5.25897969 -20.13046197 5.25897969 -16.0625 1.8125 C-11.87269238 -1.86945215 -5.14851563 -1.56123969 0 0 Z " fill="#2C2519" transform="translate(109,121)"/>
<path d="M0 0 C3 2 3 2 4 5 C11.72044187 13.54072313 11.72044187 13.54072313 21 20 C21 20.66 21 21.32 21 22 C21.66 22 22.32 22 23 22 C23 22.66 23 23.32 23 24 C18.00218029 22.48550918 14.7548314 19.47010484 11 16 C10.195625 15.2575 9.39125 14.515 8.5625 13.75 C7 12 7 12 7 10 C6.34 10 5.68 10 5 10 C0 4.76190476 0 4.76190476 0 0 Z " fill="#A0904D" transform="translate(0,93)"/>
<path d="M0 0 C0.33 0 0.66 0 1 0 C1.05379226 2.95857409 1.09357093 5.91617721 1.125 8.875 C1.14175781 9.71675781 1.15851563 10.55851562 1.17578125 11.42578125 C1.18222656 12.23144531 1.18867188 13.03710938 1.1953125 13.8671875 C1.20578613 14.61081543 1.21625977 15.35444336 1.22705078 16.12060547 C1 18 1 18 -1 20 C-1.99 19.67 -2.98 19.34 -4 19 C-3.71512349 16.95737483 -3.42177949 14.91592973 -3.125 12.875 C-2.96257812 11.73804688 -2.80015625 10.60109375 -2.6328125 9.4296875 C-2.02568583 6.13921085 -1.13654367 3.14220897 0 0 Z " fill="#A87C41" transform="translate(149,51)"/>
<path d="M0 0 C2.33944736 0.28730055 4.6739143 0.61936779 7 1 C7 1.33 7 1.66 7 2 C6.18273437 2.24492188 5.36546875 2.48984375 4.5234375 2.7421875 C0.36838676 4.22547612 -3.45321289 6.11800949 -7.375 8.125 C-8.47908203 8.68380859 -8.47908203 8.68380859 -9.60546875 9.25390625 C-11.40550358 10.1656122 -13.20301402 11.08229932 -15 12 C-13.49685363 7.71745091 -10.80615964 6.43818784 -6.9375 4.3125 C-3.25184275 2.46153259 -3.25184275 2.46153259 0 0 Z " fill="#524423" transform="translate(96,124)"/>
<path d="M0 0 C-1.19805725 3.59417175 -2.5047343 4.0888167 -5.77148438 5.75195312 C-6.40376953 6.06068359 -7.03605469 6.36941406 -7.6875 6.6875 C-8.30044922 7.00783203 -8.91339844 7.32816406 -9.54492188 7.65820312 C-13.52892638 9.63964333 -16.56813271 10.36081254 -21 10 C-17.44283087 7.03569239 -13.54949068 5.2278075 -9.375 3.3125 C-8.694375 2.99216797 -8.01375 2.67183594 -7.3125 2.34179688 C-2.25941165 0 -2.25941165 0 0 0 Z " fill="#8B840A" transform="translate(123,122)"/>
<path d="M0 0 C1 3 1 3 -0.21484375 5.69921875 C-0.78332031 6.68535156 -1.35179687 7.67148438 -1.9375 8.6875 C-2.78634766 10.17830078 -2.78634766 10.17830078 -3.65234375 11.69921875 C-4.09707031 12.45847656 -4.54179687 13.21773437 -5 14 C-5.66 14 -6.32 14 -7 14 C-7 14.66 -7 15.32 -7 16 C-7.66 16 -8.32 16 -9 16 C-9.28875 16.598125 -9.5775 17.19625 -9.875 17.8125 C-11 20 -11 20 -13 23 C-13.66 23 -14.32 23 -15 23 C-15 23.66 -15 24.32 -15 25 C-15.66 24.67 -16.32 24.34 -17 24 C-16.27554688 23.10539062 -15.55109375 22.21078125 -14.8046875 21.2890625 C-9.32896045 14.46309136 -4.20858595 7.70686204 0 0 Z " fill="#9F924D" transform="translate(149,83)"/>
<path d="M0 0 C0.66 0.33 1.32 0.66 2 1 C1.49339844 1.68835938 1.49339844 1.68835938 0.9765625 2.390625 C-2.36308951 6.98192426 -2.36308951 6.98192426 -5 12 C-6 9 -6 9 -6 7 C-6.598125 7.309375 -7.19625 7.61875 -7.8125 7.9375 C-10 9 -10 9 -13 10 C-13.99 9.34 -14.98 8.68 -16 8 C-14.75264433 7.3490741 -13.50198168 6.70448331 -12.25 6.0625 C-11.55390625 5.70285156 -10.8578125 5.34320313 -10.140625 4.97265625 C-8.07200013 4.03271539 -6.24037176 3.37182641 -4 3 C-3.34 3.33 -2.68 3.66 -2 4 C-1.34 2.68 -0.68 1.36 0 0 Z " fill="#A4743F" transform="translate(77,64)"/>
<path d="M0 0 C0.66 0.66 1.32 1.32 2 2 C1.43152344 2.03738281 0.86304687 2.07476563 0.27734375 2.11328125 C-3.78690287 2.45931894 -6.75014281 2.88399488 -10.5 4.625 C-15.00627836 6.39532364 -18.33196384 5.87856463 -23 5 C-23 4.67 -23 4.34 -23 4 C-22.12988281 3.81824219 -22.12988281 3.81824219 -21.2421875 3.6328125 C-17.70898412 2.87486458 -14.33558496 2.12327611 -10.9375 0.875 C-7.06681675 -0.27796948 -4.03559915 -0.26903994 0 0 Z " fill="#533F1F" transform="translate(51,19)"/>
<path d="M0 0 C0.33 0.99 0.66 1.98 1 3 C-11.56019656 17.18837019 -11.56019656 17.18837019 -16 21 C-16.66 21 -17.32 21 -18 21 C-18 19 -18 19 -15.8125 16.6875 C-14.884375 15.800625 -13.95625 14.91375 -13 14 C-12.113125 13.071875 -11.22625 12.14375 -10.3125 11.1875 C-8 9 -8 9 -6 9 C-5.67 8.01 -5.34 7.02 -5 6 C-4.02149805 4.97895449 -3.02019573 3.9793879 -2 3 C-1.34 2.01 -0.68 1.02 0 0 Z " fill="#5C0400" transform="translate(149,101)"/>
<path d="M0 0 C0.33 0.66 0.66 1.32 1 2 C-2.80304814 7.19210472 -6.76158542 12.15609762 -11 17 C-11.33 16.34 -11.66 15.68 -12 15 C-10.13344805 10.33362013 -7.65847278 7.39077965 -4 4 C-3.236875 3.236875 -2.47375 2.47375 -1.6875 1.6875 C-1.130625 1.130625 -0.57375 0.57375 0 0 Z " fill="#B18543" transform="translate(138,97)"/>
<path d="M0 0 C0.99 0.33 1.98 0.66 3 1 C4.1875 4.0625 4.1875 4.0625 5 7 C2.42786866 8.61949011 1.32330841 9.04408751 -1.75 8.625 C-2.86375 8.315625 -2.86375 8.315625 -4 8 C-1.125 1.125 -1.125 1.125 0 0 Z " fill="#A97841" transform="translate(61,53)"/>
<path d="M0 0 C0 2.97 0 5.94 0 9 C-3.3 9.33 -6.6 9.66 -10 10 C-9.67 8.68 -9.34 7.36 -9 6 C-7.35 5.67 -5.7 5.34 -4 5 C-3.814375 4.0409375 -3.814375 4.0409375 -3.625 3.0625 C-3.41875 2.381875 -3.2125 1.70125 -3 1 C-1 0 -1 0 0 0 Z " fill="#AD8747" transform="translate(121,108)"/>
<path d="M0 0 C0.99 0.33 1.98 0.66 3 1 C-2.14825881 6.00525162 -8.13133704 8.91858698 -15 11 C-15.99 10.67 -16.98 10.34 -18 10 C-17.49025635 9.7326001 -16.9805127 9.4652002 -16.45532227 9.18969727 C-14.15670784 7.9825377 -11.85958995 6.77255777 -9.5625 5.5625 C-8.76005859 5.14162109 -7.95761719 4.72074219 -7.13085938 4.28710938 C-6.36708984 3.88427734 -5.60332031 3.48144531 -4.81640625 3.06640625 C-4.10943604 2.69459229 -3.40246582 2.32277832 -2.67407227 1.93969727 C-1.02071254 1.11087599 -1.02071254 1.11087599 0 0 Z " fill="#EDA500" transform="translate(123,123)"/>
<path d="M0 0 C0.33 0 0.66 0 1 0 C1.19335938 0.81984375 1.38671875 1.6396875 1.5859375 2.484375 C1.84632812 3.56203125 2.10671875 4.6396875 2.375 5.75 C2.63023438 6.81734375 2.88546875 7.8846875 3.1484375 8.984375 C3.87533541 11.55852722 4.7026224 13.67600186 6 16 C4.68 16.33 3.36 16.66 2 17 C0.14868517 13.07142246 -0.22004943 10.01224888 -0.125 5.6875 C-0.10695312 4.61886719 -0.08890625 3.55023438 -0.0703125 2.44921875 C-0.04710937 1.64097656 -0.02390625 0.83273438 0 0 Z " fill="#A68041" transform="translate(0,53)"/>
<path d="M0 0 C0.33 0 0.66 0 1 0 C1.43494462 4.43643516 1.54001196 6.32863378 -1.3125 9.875 C-4 12 -4 12 -7 13 C-7 12.34 -7 11.68 -7 11 C-6.34 11 -5.68 11 -5 11 C-4.731875 10.113125 -4.46375 9.22625 -4.1875 8.3125 C-3.07959847 5.22203785 -1.83465282 2.71209548 0 0 Z " fill="#B66258" transform="translate(149,86)"/>
<path d="M0 0 C0.99 0 1.98 0 3 0 C2.67 1.65 2.34 3.3 2 5 C0.68 5 -0.64 5 -2 5 C-2.66 5.66 -3.32 6.32 -4 7 C-4.66 5.68 -5.32 4.36 -6 3 C-4.125 1.9375 -4.125 1.9375 -2 1 C-1.34 1.33 -0.68 1.66 0 2 C0 1.34 0 0.68 0 0 Z " fill="#B58045" transform="translate(40,64)"/>
<path d="M0 0 C0.33 0 0.66 0 1 0 C1.4803318 1.58298026 1.95921612 3.16639978 2.4375 4.75 C2.83775391 6.07257813 2.83775391 6.07257813 3.24609375 7.421875 C3.88468494 9.60565835 4.46775833 11.78835498 5 14 C4.01 14 3.02 14 2 14 C-0.19790854 9.42102388 -1.49432386 6.19040052 -1 1 C-0.67 0.67 -0.34 0.34 0 0 Z " fill="#282117" transform="translate(22,94)"/>
<path d="M0 0 C0.99 0.33 1.98 0.66 3 1 C2.67 2.32 2.34 3.64 2 5 C0.68 5 -0.64 5 -2 5 C-2.66 5.66 -3.32 6.32 -4 7 C-4.66 5.68 -5.32 4.36 -6 3 C-4.125 1.9375 -4.125 1.9375 -2 1 C-1.34 1.33 -0.68 1.66 0 2 C0 1.34 0 0.68 0 0 Z " fill="#B98246" transform="translate(100,86)"/>
<path d="M0 0 C-1.74681293 0.98484108 -3.4975851 1.96266187 -5.25 2.9375 C-6.71179688 3.75541016 -6.71179688 3.75541016 -8.203125 4.58984375 C-10.53610409 5.76610835 -12.45350762 6.52101691 -15 7 C-14 4 -14 4 -11.34765625 2.578125 C-10.26355469 2.13984375 -9.17945312 1.7015625 -8.0625 1.25 C-6.98097656 0.80140625 -5.89945313 0.3528125 -4.78515625 -0.109375 C-2 -1 -2 -1 0 0 Z " fill="#660800" transform="translate(122,129)"/>
<path d="M0 0 C-1 3 -1 3 -3.9375 4.6875 C-7 6 -7 6 -9 6 C-7.54266958 1.38512035 -7.54266958 1.38512035 -5.0625 -0.375 C-3 -1 -3 -1 0 0 Z " fill="#C89F5B" transform="translate(86,126)"/>
<path d="M0 0 C1.32 0 2.64 0 4 0 C4.13277344 0.62648437 4.26554688 1.25296875 4.40234375 1.8984375 C4.57894531 2.71570313 4.75554687 3.53296875 4.9375 4.375 C5.19853516 5.59316406 5.19853516 5.59316406 5.46484375 6.8359375 C5.92330693 9.029463 5.92330693 9.029463 7 11 C6.01 11 5.02 11 4 11 C2.68 7.37 1.36 3.74 0 0 Z " fill="#B17049" transform="translate(138,0)"/>
<path d="M0 0 C-1.93232821 0.86580287 -3.87107194 1.71729941 -5.8125 2.5625 C-6.89144531 3.03816406 -7.97039062 3.51382813 -9.08203125 4.00390625 C-12 5 -12 5 -15 4 C-11.47545561 0.62869667 -4.64168881 -2.32084441 0 0 Z " fill="#A5934F" transform="translate(109,125)"/>
<path d="M0 0 C5.20988728 1.63739315 8.61159416 4.55376114 11.3125 9.3125 C11.6528125 10.1478125 11.6528125 10.1478125 12 11 C8.57472113 9.52651292 6.35044942 7.59092154 3.75 4.9375 C3.04359375 4.22464844 2.3371875 3.51179688 1.609375 2.77734375 C0 1 0 1 0 0 Z " fill="#620300" transform="translate(0,110)"/>
<path d="M0 0 C0.33 0 0.66 0 1 0 C1.05391993 1.79133978 1.09275571 3.58313899 1.125 5.375 C1.14820313 6.37273437 1.17140625 7.37046875 1.1953125 8.3984375 C1 11 1 11 -1 13 C-1.99 12.34 -2.98 11.68 -4 11 C-3.34 11 -2.68 11 -2 11 C-1.34 7.37 -0.68 3.74 0 0 Z " fill="#AF822C" transform="translate(149,58)"/>
<path d="M0 0 C0.33 0.66 0.66 1.32 1 2 C0.06553465 4.03144641 -0.93224776 6.03533587 -2 8 C-2.66 8 -3.32 8 -4 8 C-4.33 8.66 -4.66 9.32 -5 10 C-5.66 9.67 -6.32 9.34 -7 9 C-2.85714286 2.57142857 -2.85714286 2.57142857 0 0 Z " fill="#A67D2E" transform="translate(145,74)"/>
<path d="M0 0 C-2.73704754 2.73704754 -5.26044774 3.16182449 -9 4 C-11.4375 3.625 -11.4375 3.625 -13 3 C-12.01 3 -11.02 3 -10 3 C-10 2.34 -10 1.68 -10 1 C-6.52674819 -0.1577506 -3.63932552 -0.06866652 0 0 Z " fill="#700A00" transform="translate(106,136)"/>
<path d="M0 0 C1.32 0.66 2.64 1.32 4 2 C4 2.66 4 3.32 4 4 C4.99 4.33 5.98 4.66 7 5 C6.34 5.66 5.68 6.32 5 7 C3.02 5.68 1.04 4.36 -1 3 C-0.67 2.01 -0.34 1.02 0 0 Z " fill="#2C2519" transform="translate(52,121)"/>
<path d="M0 0 C-5.41538462 4.06153846 -5.41538462 4.06153846 -8.375 3.75 C-8.91125 3.5025 -9.4475 3.255 -10 3 C-10 2.34 -10 1.68 -10 1 C-3.71428571 -1.42857143 -3.71428571 -1.42857143 0 0 Z " fill="#B27E44" transform="translate(64,74)"/>
<path d="M0 0 C3.16115776 1.36983503 3.9927092 1.9890638 6 5 C5.67 5.99 5.34 6.98 5 8 C0 2.25 0 2.25 0 0 Z " fill="#241E16" transform="translate(15,85)"/>
<path d="M0 0 C0.33 0 0.66 0 1 0 C1.36923077 5.41538462 1.36923077 5.41538462 -0.5 8.375 C-0.995 8.91125 -1.49 9.4475 -2 10 C-2.25 3.375 -2.25 3.375 0 0 Z " fill="#B37E3C" transform="translate(22,27)"/>
<path d="M0 0 C2.64 0.33 5.28 0.66 8 1 C8 1.99 8 2.98 8 4 C4.31245243 3.50168276 2.39509338 2.89932357 0 0 Z " fill="#CCB400" transform="translate(25,127)"/>
<path d="M0 0 C0.99 0.33 1.98 0.66 3 1 C2.67 2.32 2.34 3.64 2 5 C0.68 4.67 -0.64 4.34 -2 4 C-1.34 2.68 -0.68 1.36 0 0 Z " fill="#B58045" transform="translate(76,82)"/>
<path d="M0 0 C0.99 0.33 1.98 0.66 3 1 C0.69 2.65 -1.62 4.3 -4 6 C-4.66 5.67 -5.32 5.34 -6 5 C-1.60546875 0.99609375 -1.60546875 0.99609375 0 0 Z " fill="#5F0200" transform="translate(128,122)"/>
<path d="M0 0 C5.875 3.75 5.875 3.75 7 6 C4.625 5.8125 4.625 5.8125 2 5 C0.6875 2.4375 0.6875 2.4375 0 0 Z " fill="#E9A900" transform="translate(9,115)"/>
</svg>
